<?xml version="1.0" encoding="UTF-8"?>
<!DOCTYPE svg PUBLIC "-//W3C//DTD SVG 1.1//EN" "http://www.w3.org/Graphics/SVG/1.1/DTD/svg11.dtd">
<!-- Creator: CorelDRAW 2020 (64-Bit) -->
<svg xmlns="http://www.w3.org/2000/svg" xml:space="preserve" width="1002.95mm" height="705.556mm" version="1.1" style="shape-rendering:geometricPrecision; text-rendering:geometricPrecision; image-rendering:optimizeQuality; fill-rule:evenodd; clip-rule:evenodd"
viewBox="0 0 100294.72 70555.56"
 xmlns:xlink="http://www.w3.org/1999/xlink"
 xmlns:xodm="http://www.corel.com/coreldraw/odm/2003">
 <defs>
  <style type="text/css">
   <![CDATA[
    .fil16 {fill:#0E2E35;fill-rule:nonzero}
    .fil23 {fill:#103D46;fill-rule:nonzero}
    .fil13 {fill:#13375B;fill-rule:nonzero}
    .fil6 {fill:#184655;fill-rule:nonzero}
    .fil5 {fill:#335691;fill-rule:nonzero}
    .fil14 {fill:#355389;fill-rule:nonzero}
    .fil4 {fill:#466EB6;fill-rule:nonzero}
    .fil1 {fill:#50BFA5;fill-rule:nonzero}
    .fil3 {fill:#5184CE;fill-rule:nonzero}
    .fil10 {fill:#9AC1F9;fill-rule:nonzero}
    .fil15 {fill:#9BC1F9;fill-rule:nonzero}
    .fil9 {fill:#AFD0FB;fill-rule:nonzero}
    .fil19 {fill:#B4D2F9;fill-rule:nonzero}
    .fil11 {fill:#BADAFB;fill-rule:nonzero}
    .fil18 {fill:#BCD8FA;fill-rule:nonzero}
    .fil17 {fill:#C8E1FB;fill-rule:nonzero}
    .fil7 {fill:#CCE6FF;fill-rule:nonzero}
    .fil22 {fill:#D6E7FC;fill-rule:nonzero}
    .fil21 {fill:#DBEBFC;fill-rule:nonzero}
    .fil20 {fill:#E2F0FD;fill-rule:nonzero}
    .fil8 {fill:#E9FFFF;fill-rule:nonzero}
    .fil2 {fill:#F47458;fill-rule:nonzero}
    .fil0 {fill:#F7CC7F;fill-rule:nonzero}
    .fil12 {fill:white;fill-rule:nonzero}
   ]]>
  </style>
 </defs>
 <g id="Layer_x0020_1">
  <metadata id="CorelCorpID_0Corel-Layer"/>
  <path class="fil0" d="M52522.87 12725.14l0.45 -0.05c801.66,-2665.32 3612.72,-4175.84 6278.23,-3373.82 2665.52,802.12 4175.75,3613 3373.64,6278.37l0 0c-802.12,2665.37 -3612.73,4175.89 -6278.23,3373.82 -2665.51,-802.03 -4175.75,-3612.95 -3374.09,-6278.32zm-1650.33 -193.64c-907.51,3571.24 1259.76,7214.95 4830.96,8122.46 3571.2,907.56 7214.49,-1259.57 8122.46,-4830.72 907.52,-3571.2 -1259.75,-7214.9 -4830.95,-8122.42 -3571.2,-907.56 -7214.95,1259.52 -8122.47,4830.68z"/>
  <path class="fil0" d="M50643.05 12473.23c455.35,-1791.26 1580.5,-3298.03 3169.23,-4242.77 1588.26,-944.75 3449.83,-1214.36 5241.13,-759.14 1791.31,455.21 3297.9,1580.69 4242.83,3169.18 944.47,1588.49 1214.12,3449.79 759.22,5241.05 -455.35,1791.25 -1580.96,3298.03 -3169.23,4242.77 -1588.72,944.75 -3449.83,1214.31 -5241.13,759.14 -1791.31,-455.21 -3297.9,-1580.74 -4242.83,-3169.18 -944.93,-1588.49 -1214.12,-3449.79 -759.22,-5241.05zm-4401.02 68.63c31.53,159.6 176.12,215.35 532.56,356.75 637.54,252.91 1275.49,505.91 1903.77,780.9 99.01,43.3 197.56,197.34 209.88,309.63 72.55,667.56 104.95,1339.69 184.34,2006.25 24.63,206.54 4.56,316.37 -181.14,433.04 -741.89,466.21 -1471.05,953.28 -2196.7,1427.38 181.32,778.21 1095.5,2527.4 1583.93,3016.57 769.72,-323.87 1560.89,-642.79 2338.82,-992.34 242.28,-108.77 365.93,-87.88 567.6,104.99 467.67,447.27 978.23,853.27 1493.36,1246.66 208.52,159.33 320.3,284.21 252.32,571.2 -175.21,743.98 -305.24,1498.47 -468.14,2245.56 -43.79,200.76 -5.47,326.32 192.55,387.69 933.06,288.77 1866.14,576.22 2798.74,864.63 229.5,70.85 264.64,-117.72 321.67,-252.64 290.19,-683.45 583.57,-1365.65 850.02,-2058.13 99.93,-259.98 234.53,-345.58 516.96,-354.43 747.36,-23.45 1493.36,-95.63 2297.3,-152.48 475.89,722.04 1000.59,1519.18 1540.36,2338.55 1083.63,-358.72 2059.13,-895.84 2983.07,-1606.34 -365.47,-879.27 -731.85,-1758.9 -1054.44,-2534.1 553.46,-701.06 1080.45,-1339.05 1568.65,-2005.48 140.98,-192.86 251.86,-224.62 464.02,-178.03 735.96,161.66 1476.94,300.36 2214.27,456.95 159.23,33.86 276.04,40.02 357.71,-134.1 412.47,-879.72 745.08,-1782.31 879.68,-2752.43 30.12,-216.22 -47.91,-301.59 -225.85,-375.18 -717.25,-296.16 -1428.57,-606.06 -2146.74,-899.26 -174.29,-71.04 -246.84,-144.87 -262.81,-357.07 -54.75,-736.24 -141.43,-1471.01 -246.38,-2201.9 -26.92,-186.71 32.39,-259.34 163.8,-345.9 732.31,-482.23 1460.97,-969.84 2209.24,-1468.08 -379.61,-1066.34 -864.16,-2056.12 -1558.15,-2966.24 -897.02,373.32 -1788.1,744.17 -2640.87,1099.06 -718.62,-595.98 -1414.42,-1173.06 -2158.59,-1790.58 131.86,-658.16 289.27,-1415.29 433.9,-2174.88 118.63,-623.4 208.06,-541.45 -418.39,-804.26 -59.77,-25.1 -110.42,-71.87 -165.17,-108.55 -559.84,-168.59 -1120.59,-337.13 -1680.43,-505.73 -130.95,-14.83 -268.28,-9.39 -391.48,-48.45 -320.76,-101.61 -501.44,-28.7 -629.19,314.73 -266.46,715.7 -577.64,1415.07 -886.98,2113.71 -40.61,91.52 -173.84,186.93 -274.22,199.65 -655.2,82.95 -1319.98,109.28 -1968.33,226.13 -317.57,57.17 -450.8,-29.56 -607.75,-277 -443.95,-701.64 -917.1,-1385.08 -1424.92,-2145.09 -1004.7,527.58 -1985.22,1042.21 -2976.23,1562.71 78.02,197.52 120.45,311.91 167.9,424.69 289.28,695.4 572.62,1393.54 874.67,2083.55 85.32,195.96 41.98,306.06 -92.17,465.48 -460.83,547.7 -886.53,1125.06 -1343.71,1676 -71.17,85.47 -246.38,145.46 -357.71,126.16 -608.66,-105.76 -1211.39,-245.2 -1818.17,-363.09 -490.86,-95.41 -673.54,-129.08 -828.95,31.21l-897.48 2981.93z"/>
  <path class="fil1" d="M11124.27 19433.86c-665.28,-1327.01 -773.91,-2833.65 -305.97,-4242.37 467.9,-1408.73 1456.41,-2550.89 2783.41,-3216.18 1326.97,-665.23 2833.65,-773.92 4242.37,-305.97 1408.72,467.9 2550.95,1456.44 3216.18,2783.46 665.24,1327 773.88,2833.64 305.97,4242.32 -467.94,1408.77 -1456.45,2550.94 -2783.45,3216.18 -1326.96,665.23 -2833.61,773.91 -4242.33,306.01 -1408.76,-467.95 -2550.94,-1456.44 -3216.18,-2783.45zm-2636.35 2355.29c103.03,80.35 220.01,38.28 510.79,-63.24 520.19,-181.68 1040.61,-363.36 1566.59,-526.66 82.81,-25.69 223.85,15.92 290.28,77.65 395.03,367.16 767.94,758.31 1166.54,1121.32 123.6,112.52 169.09,189.76 117.66,358.22 -205.45,673.18 -392.07,1352.14 -583.51,2021.67 519.27,376.92 1993.84,958.67 2547.66,998.95 297.16,-601.31 610.02,-1211.02 898.52,-1832.05 89.79,-193.32 175.89,-245.65 399.74,-234.56 519.32,25.59 1042.56,3.88 1562.34,-28.2 210.53,-13.01 343.71,4.33 453.49,214.22 284.62,543.87 602.23,1070.44 896.11,1609.61 78.97,145 168.18,201.26 320.84,134.19 718.17,-315.01 1435.83,-630.97 2153.85,-946.2 176.54,-77.48 98.88,-210.48 62.65,-322.59 -183.33,-567.32 -363.65,-1135.92 -565.77,-1696.53 -75.92,-210.53 -39.42,-333.03 127.44,-486.93 441.61,-407.17 856.64,-843.18 1314.96,-1300.36 668.34,188.44 1406.26,396.5 2164.71,610.35 469.27,-787.42 779.39,-1626.55 967.05,-2543.74 -684.48,-341.55 -1369.16,-683.26 -1972.57,-984.34 -32.49,-716.66 -47.87,-1381.08 -101.75,-2042.39 -15.65,-191.41 34.95,-268.92 188.21,-352.1 531.87,-288.72 1054.71,-594.06 1584.66,-886.44 114.52,-63.23 188.76,-120.96 146.78,-269.56 -211.98,-751.02 -484.42,-1474.06 -912.81,-2133.73 -95.49,-147.05 -187.48,-158.1 -334.35,-109.14 -591.14,197.11 -1186.02,382.9 -1776.29,582.47 -142.99,48.32 -226.03,41.84 -347.22,-78.76 -420.26,-418.25 -859.15,-818.9 -1307.29,-1207.37 -114.48,-99.28 -116.63,-174.52 -82.32,-296.16 191.09,-677.74 377.16,-1356.85 569.79,-2052.93 -791.17,-447.86 -1605.65,-794.22 -2505.5,-982.07 -348.35,698.14 -694.53,1391.85 -1025.82,2055.67 -749.65,15.84 -1475.43,31.17 -2252.13,47.54 -265.91,-469 -568.33,-1011.54 -879.78,-1548.84 -255.64,-440.98 -158.27,-438.16 -676.78,-268.52 -49.46,16.16 -104.8,14.43 -157.41,20.99 -428.8,192.14 -857.55,384.27 -1286.31,576.36 -87.33,59.87 -167.86,135.33 -263.22,176.44 -248.16,106.86 -319.52,246.07 -216.54,521.79 214.53,574.57 393.21,1162.84 572.57,1749.83 23.45,76.88 -7.26,204.82 -61.6,265.36 -354.43,394.95 -744.08,760.28 -1076.51,1172.15 -162.62,201.58 -289.28,219.1 -514.44,151.21 -638.55,-192.64 -1285.04,-358.99 -1993.07,-553.45 -332.75,848.6 -657.44,1676.41 -985.72,2513.52 151.11,78.98 237.35,125.89 325.14,169.64 541.4,270.11 1080.43,545.11 1626.54,805.4 155.04,73.92 186.39,163.72 188.71,331.03 8.08,574.9 53.16,1149.24 65.11,1724.18 1.83,89.16 -73,217.74 -150.7,264.46 -425.24,255.78 -864.58,488.06 -1295.03,735.45 -348.26,200.12 -476.84,275.68 -487.01,454.76l1022.72 2282.43z"/>
  <path class="fil2" d="M39244.63 14605.46c218.51,-1160.84 1336.59,-1924.76 2497.29,-1706.35 1160.93,218.42 1924.67,1336.5 1706.43,2497.29l0 0c-218.5,1160.83 -1336.58,1924.76 -2497.28,1706.35 -1160.92,-218.42 -1924.9,-1336.5 -1706.44,-2497.29l0 0zm-2414.38 -1093.22l-244.14 1298.72c20.25,65.93 83.81,82.9 240.63,126.52 280.37,78.03 561.03,156.05 838.35,243.79 43.8,13.82 92.52,74.42 102.65,121.23 60.78,278.41 104.53,560.57 168.1,838.25 19.8,86.05 16.28,133.27 -56.95,190.86 -292.19,230.19 -577.77,468.49 -862.66,701.23 111.6,320.21 576.13,1017.16 804.26,1201.53 310.31,-171.28 629.79,-341.51 942.24,-524.01 97.23,-56.76 150.42,-53.53 244.14,18.75 217.51,167.68 451.07,316.01 686.27,458.82 95.36,57.81 147.88,105.49 132.32,229.64 -40.47,321.8 -61.45,646.03 -96.55,968.61 -9.39,86.69 12.51,137.97 98.92,154.94 406.35,79.85 813.16,159.11 1219.79,238.82 99.83,19.57 106.17,-61.55 124.29,-121.14 91.62,-301.41 184.83,-602.51 266.05,-906.7 30.61,-114.24 83.35,-156.36 201.99,-172.83 314.54,-43.53 626.04,-107.59 962.72,-167.77 233.06,283.25 490.62,595.98 755.25,917.46 440.99,-200.16 828.49,-470.78 1186.39,-812.2 -194,-354.52 -388.01,-709.22 -558.93,-1021.81 201.99,-320.76 395.54,-613.68 571.39,-916.87 51.1,-87.74 96.31,-106.13 187.89,-96.04 317.83,35.09 636.86,60.27 954.92,93.12 68.76,7.12 118.17,4.48 144.81,-72.68 134.42,-389.79 234.25,-785.65 247.44,-1201.03 2.83,-92.58 -33.9,-125.11 -112.33,-148.15 -315.92,-92.71 -630.02,-191.4 -946.21,-282.79 -76.74,-22.13 -110.87,-50.01 -127.11,-138.84 -56.31,-308.21 -125.75,-614.32 -203.23,-917.97 -19.75,-77.61 2.15,-110.92 53.71,-153.35 287.22,-236.44 572.57,-475.07 866.17,-718.99 -208.37,-432.86 -457.22,-828.67 -791.07,-1181.5 -361.64,197.93 -721.13,394.53 -1064.88,582.7 -330.06,-219.1 -649.54,-431.31 -991.43,-658.35 25.92,-283.66 58.18,-610.25 85.01,-937.26 22.13,-268.43 63.56,-237.85 -212.58,-320.57 -26.37,-7.9 -49.91,-25.32 -74.64,-38.33 -243.92,-45.9 -487.84,-91.85 -731.99,-137.7 -17.38,-0.14 -35.09,0.59 -52.75,1.37 -38.82,1.64 -77.65,3.28 -114.66,-4.2 -139.79,-28.47 -212.8,10.45 -251.17,161.1 -80.07,314.01 -179.91,623.13 -279.01,931.89 -13.18,40.42 -64.97,86.69 -106.86,96.54 -272.89,64.52 -552.12,105.59 -820.5,184.11 -131.41,38.41 -191.45,7.84 -268.65,-89.52 -219.19,-276.14 -449.47,-543.23 -698.05,-841.04 -400.27,267.92 -790.61,529.18 -1185.42,793.45 41.66,79.84 64.97,126.2 89.93,171.65 153.49,280.41 304.42,562.25 462.84,839.8 44.98,78.85 31.57,127.25 -17.89,200.57 -169.73,251.87 -323.49,514.63 -491.58,767.72 -26.14,39.24 -97.23,72.45 -145.04,69.31 -261.54,-17.21 -522.43,-48.87 -783.74,-71.32 -211.43,-18.16 -290.04,-24.14 -348.45,50.46z"/>
  <path class="fil3" d="M38747.16 14351.5l-4154.99 0c-425.19,0 -770.08,344.75 -770.08,770l0 1361.36c0,425.2 344.89,769.95 770.08,769.95l4154.99 0c425.2,0 769.87,-344.75 769.87,-769.95l0 -1361.36c0,-425.25 -344.67,-770 -769.87,-770z"/>
  <polygon class="fil4" points="33242.9,42950.67 28842.16,44979.18 28842.16,45428.39 44514.38,45428.39 44514.38,44979.18 40074.08,42950.67 "/>
  <polygon class="fil4" points="33242.9,42954.41 40076.64,42954.41 40076.64,34256.73 33242.9,34256.73 "/>
  <path class="fil4" d="M57339.22 36985.21l0 -19613.41c0,-931.92 -755.58,-1687.36 -1687.28,-1687.36l-38028.65 0c-931.87,0 -1687.36,755.44 -1687.36,1687.36l0 19613.41 41403.29 0z"/>
  <polygon class="fil5" points="28842.16,45428.39 44514.43,45428.39 44514.43,44979.18 28842.16,44979.18 "/>
  <polygon class="fil5" points="33242.9,42950.67 40074.08,42950.67 40074.08,41930.05 33242.9,41930.05 "/>
  <path class="fil3" d="M15935.93 36985.21l0 3143.03c0,653.57 432.13,1183.56 965.23,1183.56l39473.05 0c532.92,0 965.01,-529.99 965.01,-1183.56l0 -3143.03 -41403.29 0z"/>
  <path class="fil6" d="M37087.36 15122.05c0,212.3 -172.1,384.4 -384.5,384.4 -212.34,0 -384.22,-172.1 -384.22,-384.4 0,-212.26 171.88,-384.37 384.22,-384.37 212.4,0 384.5,172.11 384.5,384.37z"/>
  <path class="fil7" d="M56370.11 36133.41l0 -18709.22c0,-490.44 -412.01,-888.04 -919.84,-888.04l-37625.12 0c-508.1,0 -919.97,397.6 -919.97,888.04l0 18709.22 39464.93 0z"/>
  <polygon class="fil8" points="18638.26,34597.89 42358.52,34597.89 42358.52,18046.49 18638.26,18046.49 "/>
  <polygon class="fil3" points="18638.26,19984.39 42358.52,19984.39 42358.52,18046.52 18638.26,18046.52 "/>
  <path class="fil9" d="M44016.46 34719.84l0 -7177.99 1089.56 0c130.45,396.04 307.02,779.81 529.55,1143.77l0 510.66 -1619.11 0 0 5523.56z"/>
  <path class="fil10" d="M52419.3 34719.84l-1619.3 0 0 -3415.25c553,-47.08 1099.6,-177.99 1619.3,-392.47l0 3807.72z"/>
  <path class="fil10" d="M50158.03 34719.84l-1619.29 0 0 -3696.35c525.17,181.28 1071.32,280.65 1619.29,298.08l0 3398.27zm-246.83 -4045.03c-467.23,-40.24 -929.88,-148.06 -1372.46,-323.49l0 0c442.58,175.43 905.69,283.25 1372.46,323.49z"/>
  <path class="fil10" d="M54712.95 34719.84l-1619.3 0 0 -4143.45c390.91,-230.62 347.84,-481.92 352.88,-475.8 0,0 748.55,-1557.41 1266.42,-984.34l0 5603.59zm0 -3496.23l-763.8 -608.84 -0.45 0.27c-11.86,-38.15 -137.34,-449.24 -143.73,-522.7 0,-4.24 -1.36,-8.71 -2.73,-13.18 36.5,-30.12 72.54,-60.96 108.13,-92.03l802.58 783.5 0 452.98zm0 -1665.92l-196.2 -191.68c67.99,-81.9 133.23,-165.03 196.2,-249.76l0 441.44zm-959.08 -292.65c1.37,-1.42 3.19,-3.06 4.56,-4.47 -1.37,1.41 -3.19,3.05 -4.56,4.47z"/>
  <path class="fil10" d="M47896.92 34719.84l-1619.12 0 0 -5183.09c68.31,74.6 139.4,147.83 212.58,219.41 425.47,415.52 901.03,748.42 1406.54,998.73l0 3964.95zm0 -4679.51c-320.44,-185.52 -624.63,-410.82 -905.29,-675.69 280.66,264.87 584.85,489.94 905.29,675.69l0 0zm-950 -718.3c0,-0.23 0.23,0 0,-0.23 0.23,0.23 0,0 0,0.23z"/>
  <polygon class="fil10" points="44016.46,34719.84 45635.54,34719.84 45635.54,29196.28 44016.46,29196.28 "/>
  <polygon class="fil11" points="19456.62,23592.5 41350.58,23592.5 41350.58,20782.42 19456.62,20782.42 "/>
  <polygon class="fil11" points="27258.83,25110.78 41350.58,25110.78 41350.58,24390.56 27258.83,24390.56 "/>
  <polygon class="fil3" points="19456.62,32702.41 26388.91,32702.41 26388.91,24390.6 19456.62,24390.6 "/>
  <path class="fil11" d="M41350.62 26629.09c-4714.51,0 -9382.99,0 -14091.79,0l0 -720.17 14091.79 0 0 720.17z"/>
  <path class="fil11" d="M41350.62 31184.05l-14091.79 0 0 -720.17c4689.72,0 9385.99,0 14091.79,0l0 720.17z"/>
  <polygon class="fil11" points="27258.83,32702.41 41350.58,32702.41 41350.58,31982.21 27258.83,31982.21 "/>
  <path class="fil0" d="M9560.24 27371.17l13161.56 -23.78c197.66,-0.22 358.17,159.65 358.53,357.4l31.22 17342.9c0.36,197.76 -159.56,358.1 -357.22,358.56l-13161.61 23.8c-197.65,0.23 -358.16,-159.65 -358.53,-357.41l-31.21 -17342.89c-0.36,-197.75 159.56,-358.08 357.26,-358.58z"/>
  <polygon class="fil12" points="9925.57,27874.29 22358.25,27851.94 22388.77,44803.3 9956.1,44825.67 "/>
  <path class="fil13" d="M18835.92 27115.02c-0.15,-76.29 -62.06,-137.93 -138.3,-137.71l-5220.24 9.41c-76.24,0 -137.93,61.91 -137.79,138.2l0.96 542.68 5496.32 -9.9 -0.95 -542.68z"/>
  <path class="fil13" d="M16088.73 27673.49c-291.6,0.46 -528.4,-235.43 -528.95,-526.9 -0.5,-291.73 235.44,-528.58 527.03,-529.04 291.61,-0.46 528.4,235.43 528.95,527.12 0.55,291.51 -235.43,528.36 -527.03,528.82zm-2.42 -1351.15c-454.71,0.69 -822.64,370.08 -821.82,824.71 0.82,454.62 370.08,822.6 824.79,821.64 454.67,-0.68 822.6,-369.85 821.78,-824.7 -0.82,-454.62 -370.08,-822.6 -824.75,-821.65z"/>
  <path class="fil14" d="M18751.37 26987.9c49.59,20.95 84.45,69.9 84.55,127.12l0.95 542.68 -5496.32 9.9c0.68,375.74 305.92,679.93 681.84,679.25l4135.1 -7.3c375.92,-0.74 680.07,-306.07 679.38,-681.85l-0.95 -542.68c-0.1,-57.22 -34.96,-106.17 -84.55,-127.12z"/>
  <path class="fil15" d="M13477.38 26986.72l0 0c-47.68,0 -89.66,24.22 -114.39,61 24.73,-36.78 66.71,-61 114.39,-61z"/>
  <path class="fil15" d="M13345.7 27083.95c2.7,-8.72 6.21,-16.93 10.4,-24.96 -4.19,8.03 -7.7,16.24 -10.4,24.96z"/>
  <path class="fil6" d="M19237.29 32783.4l1622.9 -2.87 -2.93 -1622.85 -1622.89 2.87 2.92 1622.85zm1695.31 69.22l-1767.4 3.28 -3.19 -1767.44 1767.39 -3.28 3.2 1767.44z"/>
  <path class="fil6" d="M19242.58 35724.18l1622.9 -2.79 -2.88 -1623.12 -1622.94 3.06 2.92 1622.85zm1695.31 69.26l-1767.4 3.05 -3.19 -1767.16 1767.39 -3.33 3.2 1767.44z"/>
  <path class="fil6" d="M19247.88 38665.04l1622.94 -2.82 -2.93 -1623.08 -1622.89 3.01 2.88 1622.89zm1695.3 69.22l-1767.39 3.06 -3.2 -1767.21 1767.39 -3.29 3.2 1767.44z"/>
  <path class="fil6" d="M19253.21 41605.87l1622.9 -3.06 -2.92 -1622.9 -1622.89 3.11 2.91 1622.85zm1695.26 69.21l-1767.39 3.06 -3.19 -1767.44 1767.39 -3.01 3.19 1767.39z"/>
  <polygon class="fil15" points="10858.22,31393.84 18422.12,31380.2 18421.67,31125.92 10857.77,31139.56 "/>
  <polygon class="fil15" points="10859.55,32114.29 18423.4,32100.6 18422.99,31846.32 10859.05,31859.78 "/>
  <polygon class="fil15" points="10860.83,32834.73 18424.72,32821.04 18424.27,32566.54 10860.37,32580.18 "/>
  <polygon class="fil15" points="10863.7,34435.18 18427.6,34421.54 18427.14,34167.03 10863.24,34180.72 "/>
  <polygon class="fil15" points="10865.02,35155.4 18428.92,35141.98 18428.47,34887.47 10864.57,34901.12 "/>
  <polygon class="fil15" points="10866.3,35875.84 18430.2,35862.15 18429.74,35607.92 10865.84,35621.56 "/>
  <polygon class="fil15" points="10868.9,37316.68 18432.8,37303.04 18432.35,37048.54 10868.45,37062.18 "/>
  <polygon class="fil15" points="10870.23,38036.9 18434.08,38023.49 18433.67,37768.98 10869.72,37782.62 "/>
  <polygon class="fil15" points="10871.5,38757.3 18435.36,38743.66 18434.95,38489.38 10871.05,38503.07 "/>
  <polygon class="fil15" points="10874.11,40198.19 18438.01,40184.5 18437.55,39930.05 10873.6,39943.69 "/>
  <polygon class="fil15" points="10875.38,40918.64 18439.28,40904.95 18438.83,40650.45 10874.93,40664.09 "/>
  <polygon class="fil15" points="10876.66,41638.81 18440.6,41625.17 18440.1,41370.89 10876.2,41384.53 "/>
  <polygon class="fil15" points="10880.03,43501.34 19606.09,43485.59 19605.68,43231.32 10879.58,43247.06 "/>
  <polygon class="fil15" points="10881.13,44117.72 21328.04,44098.88 21327.58,43844.61 10880.67,43863.44 "/>
  <polygon class="fil2" points="20040.14,32563.71 19491.29,31621.98 19687.67,31507.54 20006.29,32054.24 20526.34,30806.44 20736.17,30894 "/>
  <polygon class="fil2" points="20045.52,35542.9 19496.68,34601.4 19693.05,34486.96 20011.66,35033.44 20531.72,33785.86 20741.55,33873.2 "/>
  <polygon class="fil2" points="20056.02,41368.06 19507.13,40426.33 19703.55,40311.89 20022.12,40858.32 20542.22,39610.75 20752.05,39698.13 "/>
  <polygon class="fil2" points="20667.5,37406.39 20509.23,37246.51 20057.61,37694.11 19604.41,37248.2 19446.72,37408.53 19897.88,37852.3 19448.27,38297.98 19606.55,38457.63 20058.16,38010.03 20511.37,38455.99 20669.06,38295.65 20217.9,37851.84 "/>
  <polygon class="fil6" points="13501.38,30306.1 13501.38,29459.27 13163.88,29459.27 13163.88,29385.08 13945.24,29385.08 13945.24,29459.27 13607.73,29459.27 13607.73,30306.1 "/>
  <polygon class="fil6" points="14807.53,30231.96 14807.53,30306.1 14130.16,30306.1 14130.16,29385.08 14783.63,29385.08 14783.63,29459.27 14235.79,29459.27 14235.79,29781.81 14632.37,29781.81 14632.37,29855.95 14235.79,29855.95 14235.79,30231.96 "/>
  <path class="fil6" d="M14915.44 30085.77l91.67 -30.62c30.84,65.66 70.26,114.21 118.31,145.51 48.04,31.3 106.99,46.86 176.85,46.86 71.9,0 129.8,-16.25 173.74,-49.24 43.94,-32.71 65.93,-75.78 65.93,-129.48 0,-42.62 -14.41,-77.93 -43.17,-105.45 -28.78,-27.55 -77.56,-52.74 -146.41,-75.6 -37.5,-12 -87.23,-26.6 -149.15,-43.53 -61.87,-17.2 -101.56,-29.93 -119.04,-38.14 -54.98,-25.69 -94.04,-52.98 -117.08,-82.17 -23.13,-28.97 -34.72,-64.98 -34.72,-107.59 0,-76.52 29.02,-136.56 87.1,-180.37 58.04,-43.8 137.93,-65.7 239.63,-65.7 90.44,0 165.04,17.93 223.89,53.93 58.82,35.77 103.62,90.89 134.46,165.26l-89.42 23.09c-28.25,-57.44 -64.57,-99.83 -109.01,-127.12 -44.48,-27.33 -99.28,-40.97 -164.52,-40.97 -63.2,0 -114.44,14.6 -153.77,44.03 -39.29,29.66 -58.95,68.03 -58.95,115.35 0,35.58 12.73,65.69 38.14,90.15 25.46,24.5 64.89,44.54 118.32,59.82 20.52,6.11 50.32,14.83 89.38,25.41 111.96,30.89 184.19,55.12 216.54,73.01 51.88,27.28 89.48,57.44 112.88,89.93 23.37,32.71 35.09,71.13 35.09,115.61 0,80.49 -31.49,144.55 -94.4,192.37 -62.97,47.77 -148.1,71.54 -255.46,71.54 -96.6,0 -176.08,-19.07 -238.5,-57.21 -62.42,-38.15 -111.92,-97.69 -148.33,-178.68z"/>
  <polygon class="fil6" points="16089,30306.1 16089,29459.27 15751.5,29459.27 15751.5,29385.08 16532.86,29385.08 16532.86,29459.27 16195.36,29459.27 16195.36,30306.1 "/>
  <polygon class="fil6" points="16734.8,30306.1 16840.37,30306.1 16840.37,29385.09 16734.8,29385.09 "/>
  <polygon class="fil6" points="17264.99,29451.74 17264.99,30306.1 17162.46,30306.1 17162.46,29385.08 17334.29,29385.08 17880.67,30162.29 17880.67,29385.08 17983.15,29385.08 17983.15,30306.1 17870.64,30306.1 "/>
  <path class="fil6" d="M18950.21 30202.76c-38.01,40.74 -82.95,71.13 -134.83,91.11 -51.92,20.26 -112.29,30.39 -181.09,30.39 -141.31,0 -248.89,-40.97 -322.9,-122.41 -73.96,-81.72 -110.96,-199.9 -110.96,-354.57 0,-153.31 37.78,-271.48 113.28,-354.57 75.52,-83.36 182.38,-125.01 320.58,-125.01 102.21,0 183.92,22.12 245.06,66.11 61.1,44.07 106.36,113.25 135.6,207.92l-99.37 16.7c-24.69,-74.15 -60,-128.98 -105.99,-164.3 -45.95,-35.32 -104.95,-52.97 -176.85,-52.97 -102.76,0 -182.14,34.36 -238.13,103.12 -55.98,68.71 -83.95,166.21 -83.95,292.37 0,136.1 28.38,238.99 85.09,308.2 56.81,69.22 141.17,104.08 253.19,104.08 84.22,0 152.07,-19.8 203.45,-58.86 51.32,-39.33 77.06,-91.11 77.06,-155.4l0 -98.42 -283.62 0 0 -69.21 397.69 0 0 439.06 -93.31 0 0 -103.34z"/>
  <path class="fil9" d="M47014.95 21460.18l-2756.26 0 0 -3415.33 3415.24 0 0 2994.07c-227.4,123.09 -447.55,263.44 -658.98,421.26z"/>
  <polygon class="fil9" points="48278.21,18508.91 54940.8,18508.91 54940.8,18044.84 48278.21,18044.84 "/>
  <polygon class="fil9" points="48278.21,19492.67 52774.57,19492.67 52774.57,19028.6 48278.21,19028.6 "/>
  <path class="fil9" d="M54263.07 20476.42l-2997.67 0c-330.34,-60.86 -664.33,-91.29 -998.77,-91.29 -333.99,0 -667.98,30.43 -997.4,91.29l-991.02 0 0 -464.06 5984.86 0 0 464.06z"/>
  <path class="fil16" d="M53809.54 29281.96c103.12,-105.21 198.93,-213.98 288.36,-324.86l1912.21 1867.46c117.72,114.66 77.11,346.8 -90.34,518.18 -167.45,171.65 -398.32,217.54 -516.04,102.66l-1912.21 -1867.46c108.59,-91.84 215.36,-190.48 318.02,-295.98z"/>
  <path class="fil17" d="M50330.05 30692.97c-57.5,0 -114.98,-0.95 -172.02,-3.1l0 -550.22 531.55 540.09c-119.99,8.71 -239.54,13.23 -359.53,13.23zm-1791.31 -341.65c-219.46,-87.11 -434.36,-190.68 -641.82,-310.99l0 -2198.98 641.82 652.64 0 1857.33zm-2260.94 -1830.73c-543.36,-813.89 -816.26,-1755.44 -816.26,-2695.99 0,-146.41 6.62,-292.88 19.81,-438.6l796.45 809.41 0 2325.18z"/>
  <polygon class="fil18" points="46277.8,28520.59 46277.8,26195.41 46939.39,26868.31 46277.8,26868.31 "/>
  <path class="fil19" d="M50158.03 30689.87c-82.58,-2.79 -164.71,-7.99 -246.83,-15.06 -466.77,-40.24 -929.88,-148.06 -1372.46,-323.49l0 -1857.33 1619.29 1645.66 0 550.22z"/>
  <path class="fil19" d="M47896.92 30040.33c-320.44,-185.75 -624.63,-410.82 -905.29,-675.69 -14.83,-14.14 -29.88,-28.29 -44.71,-42.61 0,-0.23 0.23,0 0,-0.23 -5.43,-5.21 -11.09,-10.86 -16.7,-16.07l0 0c-249.12,-243.41 -466.67,-506.63 -652.42,-785.14l0 -1652.28 661.59 0 957.53 973.04 0 2198.98z"/>
  <path class="fil17" d="M52419.3 30219l0 -10.36c235.88,-118.4 461.73,-255.92 674.35,-410.82l0 25.92c-215.81,151.39 -441.66,283.2 -674.35,395.26zm674.35 -1720.08l-674.35 -685.58 0 -1621.94 674.35 685.63 0 1621.89zm1619.3 -627.92l0 -110.18c181.59,-429.9 304.78,-893.69 357.25,-1382.22 15.97,-150.93 25.1,-300.68 27.38,-449.47l-384.63 -390.79 0 -635.71 -625.09 0 -1668.56 -1695.81 0 -1019.34 -1002.88 0 -1152.07 -1170.88c1.82,0 3.65,0 5.93,0 0,0 0.45,0 0.45,0 0,0 0.46,0 0.46,0 1216.86,0.14 2437.37,456.27 3382.76,1371.08l0.46 0.32c2.28,2.61 4.56,4.97 7.75,7.58 2.74,2.69 5.48,5.61 8.22,8.3 977.78,954.74 1468.72,2218.82 1469.17,3481.23 0,678.56 -142.35,1356.61 -426.6,1985.89zm-3912.95 -1703.37l-3800.1 -3862.8c-622.77,579.27 -1096.69,1324.31 -1348.36,2175.48 212.84,-735.97 604.64,-1431 1176.48,-2016.61 533.51,-546.16 1165.89,-938.09 1841.67,-1175.12 -257.33,91.76 -505.54,205.05 -741.47,337.87l2871.78 2919.15 0 1622.03z"/>
  <path class="fil18" d="M50800 26167.63l0 -1622.03 521.97 530.31 -521.97 0 0 1091.72zm1619.3 -2960.81l-1002.88 -1019.34 1002.88 0 0 1019.34z"/>
  <path class="fil18" d="M53093.65 28498.92l0 -1621.89 283.8 288.18 -283.8 0 0 1333.71zm1619.3 -2960.58l-625.09 -635.71 625.09 0 0 635.71z"/>
  <path class="fil19" d="M51915.12 30426.69c172.46,-63.1 340.83,-136.1 504.18,-218.05l0 10.36c-164.72,79.12 -333.09,148.33 -504.18,207.69zm504.18 -2613.35l-1619.3 -1645.71 0 -1091.72 521.97 0 1097.33 1115.49 0 1621.94z"/>
  <path class="fil19" d="M53093.65 29823.74l0 -25.92c246.39,-178.95 475.43,-380.94 684.86,-602.96l-684.86 -695.94 0 -1333.71 283.8 0 1085 1102.98c92.63,-163.16 176.58,-332.44 250.5,-507.37l0 110.18c-224.49,496.56 -537.94,962.73 -940.37,1374.96l0 0c-4.56,4.7 -9.13,9.68 -14.15,14.61 -1.37,1.41 -3.19,3.05 -4.56,4.47 -206.69,209.29 -427.52,395.26 -660.22,558.7z"/>
  <path class="fil20" d="M50689.58 30679.74l-531.55 -540.09 0 -4129.53 -1619.29 0 0 2483.87 -641.82 -652.64 0 -3324.68 -1619.12 0 0 1678.74 -796.45 -809.41c27.51,-305.62 84.27,-608.84 170.19,-905.69 251.67,-851.17 725.59,-1596.21 1348.36,-2175.48l3800.1 3862.8 0 4502.48c-36.96,3.79 -73.91,6.84 -110.42,9.63zm1729.72 -471.1l0 -2395.3 674.35 685.58 0 1298.9c-212.62,154.9 -438.47,292.42 -674.35,410.82z"/>
  <polygon class="fil21" points="48538.74,28493.99 48538.74,26010.12 50158.03,26010.12 50158.03,28017.47 48538.74,28017.47 "/>
  <polygon class="fil21" points="47896.92,26868.31 46939.39,26868.31 46277.8,26195.41 46277.8,24516.67 47896.92,24516.67 "/>
  <path class="fil22" d="M50800 30670.11l0 -4502.48 1619.3 1645.71 0 2395.3c-163.35,81.95 -331.72,154.95 -504.18,218.05 -362.28,125.48 -736.87,206.69 -1115.12,243.42z"/>
  <polygon class="fil22" points="50158.03,30139.65 48538.74,28493.99 48538.74,28017.47 50158.03,28017.47 "/>
  <path class="fil22" d="M53093.65 29797.82l0 -1298.9 684.86 695.94c-209.43,222.02 -438.47,424.01 -684.86,602.96z"/>
  <polygon class="fil22" points="47896.92,27841.35 46939.39,26868.31 47896.92,26868.31 "/>
  <path class="fil20" d="M54712.95 27760.82l0 -2222.48 384.63 390.79c-2.28,148.79 -11.41,298.54 -27.38,449.47 -52.47,488.53 -175.66,952.32 -357.25,1382.22zm-1619.3 -883.79l-674.35 -685.63 0 -2984.58 1668.56 1695.81 -994.21 0 0 1974.4zm-2293.65 -2331.43l-2871.78 -2919.15c235.93,-132.82 484.14,-246.11 741.47,-337.87 514.21,-180.59 1053.98,-271.2 1594.66,-271.98l1152.07 1170.88 -616.42 0 0 2358.12z"/>
  <polygon class="fil21" points="52419.3,25075.91 51321.97,25075.91 50800,24545.6 50800,22187.48 51416.42,22187.48 52419.3,23206.82 "/>
  <polygon class="fil21" points="54712.95,27165.21 53377.45,27165.21 53093.65,26877.03 53093.65,24902.63 54087.86,24902.63 54712.95,25538.34 "/>
  <polygon class="fil22" points="52419.3,26191.4 51321.97,25075.91 52419.3,25075.91 "/>
  <path class="fil22" d="M54462.45 28268.19l-1085 -1102.98 1335.5 0 0 595.61c-73.92,174.93 -157.87,344.21 -250.5,507.37z"/>
  <path class="fil6" d="M46930.22 29305.73c-1917.64,-1872.88 -1963.32,-4936.16 -102.2,-6842.03 1861.29,-1905.83 4924.67,-1932.61 6842.36,-59.82 1917.68,1872.84 1963.77,4935.99 102.2,6842.08 -1861.11,1905.88 -4924.49,1932.43 -6842.36,59.77zm-439.84 450.43c2167.9,2117.26 5631.43,2086.88 7735.73,-67.8 2104.3,-2154.49 2052.29,-5617.56 -115.44,-7734.86 -2168.17,-2117.31 -5631.7,-2087.01 -7735.87,67.62 -2104.07,2154.58 -2052.28,5617.78 115.58,7735.04z"/>
  <path class="fil23" d="M50331.87 30992.42c-1299.9,0 -2603.77,-490.17 -3610.26,-1473.1 -2036.54,-1988.73 -2085.04,-5241.74 -108.54,-7265.55 999.68,-1023.54 2325.82,-1536.71 3655.84,-1536.71 1299.9,0 2603.91,490.21 3609.98,1473.2 2036.77,1988.82 2085.14,5241.68 108.59,7265.49 -999.23,1023.64 -2325.59,1536.67 -3655.61,1536.67zm-4870.33 -5167.82c0,1262.18 491.13,2526.21 1468.68,3481.13 948.08,925.77 2175.66,1387.24 3399.83,1387.24 1252.45,0 2501.25,-483.37 3442.53,-1447.01 912.53,-934.43 1366.97,-2146.91 1366.97,-3360.85l0 0c-0.45,-1262.41 -491.39,-2526.49 -1469.17,-3481.23 -2.74,-2.69 -5.48,-5.61 -8.22,-8.3 -3.19,-2.61 -5.47,-4.97 -7.75,-7.58l-0.46 -0.32c-945.84,-914.95 -2165.9,-1371.03 -3382.76,-1371.08 0,0 -0.46,0 -0.46,0l0 0c-1.82,0 -4.1,0 -6.38,0 -540.68,0.78 -1080.45,91.39 -1594.66,271.98 -675.78,237.03 -1308.16,628.96 -1841.67,1175.12 -571.84,585.61 -963.64,1280.64 -1176.48,2016.61 -85.92,296.85 -142.68,600.07 -170.19,905.69 -13.19,145.72 -19.81,292.19 -19.81,438.6l0 0z"/>
  <path class="fil6" d="M61949.79 37477.7l297.03 -308.16c297.03,-308.21 288.36,-798.6 -20.07,-1095.5l-5520.83 -5353.05c-308.44,-296.9 -798.92,-287.96 -1095.5,19.98l-297.48 308.44c-297.03,307.93 -287.91,798.37 20.07,1095.45l5521.28 5352.88c307.98,297.11 798.47,288.17 1095.5,-20.04z"/>
 </g>
</svg>
