<?xml version="1.0" encoding="UTF-8"?>
<!DOCTYPE svg PUBLIC "-//W3C//DTD SVG 1.1//EN" "http://www.w3.org/Graphics/SVG/1.1/DTD/svg11.dtd">
<!-- Creator: CorelDRAW 2020 (64-Bit) -->
<svg xmlns="http://www.w3.org/2000/svg" xml:space="preserve" width="1002.95mm" height="705.556mm" version="1.1" style="shape-rendering:geometricPrecision; text-rendering:geometricPrecision; image-rendering:optimizeQuality; fill-rule:evenodd; clip-rule:evenodd"
viewBox="0 0 100294.72 70555.56"
 xmlns:xlink="http://www.w3.org/1999/xlink"
 xmlns:xodm="http://www.corel.com/coreldraw/odm/2003">
 <defs>
  <style type="text/css">
   <![CDATA[
    .fil16 {fill:#0E2E35;fill-rule:nonzero}
    .fil23 {fill:#103D46;fill-rule:nonzero}
    .fil13 {fill:#13375B;fill-rule:nonzero}
    .fil6 {fill:#184655;fill-rule:nonzero}
    .fil5 {fill:#335691;fill-rule:nonzero}
    .fil14 {fill:#355389;fill-rule:nonzero}
    .fil4 {fill:#466EB6;fill-rule:nonzero}
    .fil1 {fill:#50BFA5;fill-rule:nonzero}
    .fil3 {fill:#5184CE;fill-rule:nonzero}
    .fil10 {fill:#9AC1F9;fill-rule:nonzero}
    .fil15 {fill:#9BC1F9;fill-rule:nonzero}
    .fil9 {fill:#AFD0FB;fill-rule:nonzero}
    .fil19 {fill:#B4D2F9;fill-rule:nonzero}
    .fil11 {fill:#BADAFB;fill-rule:nonzero}
    .fil18 {fill:#BCD8FA;fill-rule:nonzero}
    .fil17 {fill:#C8E1FB;fill-rule:nonzero}
    .fil7 {fill:#CCE6FF;fill-rule:nonzero}
    .fil22 {fill:#D6E7FC;fill-rule:nonzero}
    .fil21 {fill:#DBEBFC;fill-rule:nonzero}
    .fil20 {fill:#E2F0FD;fill-rule:nonzero}
    .fil8 {fill:#E9FFFF;fill-rule:nonzero}
    .fil2 {fill:#F47458;fill-rule:nonzero}
    .fil0 {fill:#F7CC7F;fill-rule:nonzero}
    .fil12 {fill:white;fill-rule:nonzero}
   ]]>
  </style>
 </defs>
 <g id="Layer_x0020_1">
  <metadata id="CorelCorpID_0Corel-Layer"/>
  <path class="fil0" d="M74049.55 16254.32l0.74 -0.07c1303.05,-4332.31 5872.24,-6787.56 10204.85,-5483.92 4332.62,1303.79 6787.41,5872.68 5483.63,10205.07l0 0c-1303.79,4332.39 -5872.25,6787.64 -10204.85,5483.92 -4332.62,-1303.64 -6787.41,-5872.61 -5484.37,-10205zm-2682.49 -314.74c-1475.1,5804.82 2047.65,11727.42 7852.4,13202.52 5804.76,1475.18 11726.68,-2047.35 13202.53,-7852.02 1475.11,-5804.75 -2047.65,-11727.35 -7852.39,-13202.46 -5804.76,-1475.17 -11727.43,2047.28 -13202.54,7851.96z"/>
  <path class="fil0" d="M70994.03 15844.86c740.14,-2911.57 2569.01,-5360.73 5151.37,-6896.35 2581.62,-1535.62 5607.48,-1973.86 8519.13,-1233.93 2911.64,739.92 5360.5,2569.31 6896.43,5151.31 1535.17,2581.98 1973.48,5607.4 1234.07,8518.97 -740.14,2911.57 -2569.75,5360.73 -5151.37,6896.35 -2582.37,1535.63 -5607.48,1973.79 -8519.13,1233.94 -2911.64,-739.93 -5360.51,-2569.39 -6896.43,-5151.3 -1535.92,-2582 -1973.48,-5607.41 -1234.07,-8518.99zm-7153.57 111.55c51.26,259.43 286.28,350.05 865.64,579.88 1036.28,411.09 2073.23,822.33 3094.46,1269.31 160.93,70.38 321.12,320.75 341.15,503.27 117.92,1085.08 170.58,2177.58 299.62,3261.03 40.04,335.73 7.41,514.24 -294.43,703.88 -1205.89,757.8 -2391.09,1549.49 -3570.59,2320.12 294.73,1264.92 1780.66,4108.12 2574.57,4903.23 1251.14,-526.42 2537.13,-1044.81 3801.61,-1612.98 393.81,-176.8 594.8,-142.84 922.59,170.65 760.17,727.02 1590.06,1386.93 2427.36,2026.36 338.93,258.98 520.63,461.96 410.12,928.45 -284.78,1209.3 -496.14,2435.67 -760.91,3650.01 -71.19,326.32 -8.9,530.41 312.97,630.17 1516.63,469.37 3033.28,936.6 4549.17,1405.39 373.04,115.17 430.14,-191.34 522.85,-410.64 471.68,-1110.9 948.55,-2219.78 1381.66,-3345.35 162.42,-422.59 381.2,-561.72 840.28,-576.11 1214.78,-38.11 2427.35,-155.44 3734.11,-247.85 773.52,1173.63 1626.39,2469.33 2503.75,3801.16 1761.37,-583.07 3346.98,-1456.12 4848.78,-2610.99 -594.04,-1429.2 -1189.57,-2858.98 -1713.91,-4119.02 899.6,-1139.52 1756.19,-2176.55 2549.73,-3259.77 229.16,-313.49 409.39,-365.1 754.24,-289.39 1196.26,262.77 2400.66,488.22 3599.14,742.75 258.83,55.03 448.69,65.04 581.44,-217.96 670.44,-1429.94 1211.08,-2897.04 1429.87,-4473.9 48.94,-351.46 -77.88,-490.21 -367.11,-609.84 -1165.84,-481.39 -2322.05,-985.11 -3489.38,-1461.68 -283.3,-115.48 -401.23,-235.48 -427.18,-580.4 -89,-1196.7 -229.9,-2391.02 -400.48,-3579.05 -43.76,-303.47 52.65,-421.54 266.25,-562.22 1190.31,-783.84 2374.7,-1576.42 3590.97,-2386.28 -617.03,-1733.27 -1404.64,-3342.09 -2532.67,-4821.42 -1458.04,606.8 -2906.45,1209.6 -4292.56,1786.44 -1168.07,-968.73 -2299.06,-1906.73 -3508.66,-2910.46 214.33,-1069.81 470.2,-2300.47 705.29,-3535.14 192.82,-1013.29 338.18,-880.09 -680.08,-1307.27 -97.15,-40.79 -179.47,-116.81 -268.47,-176.44 -909.97,-274.02 -1821.45,-547.99 -2731.42,-822.02 -212.86,-24.1 -436.08,-15.27 -636.33,-78.76 -521.37,-165.16 -815.05,-46.65 -1022.71,511.57 -433.11,1163.33 -938.9,2300.11 -1441.73,3435.7 -66.01,148.76 -282.56,303.84 -445.72,324.53 -1064.98,134.82 -2145.54,177.62 -3199.4,367.55 -516.18,92.92 -732.73,-48.05 -987.85,-450.24 -721.61,-1140.48 -1490.69,-2251.37 -2316.11,-3486.71 -1633.08,857.54 -3226.84,1694.04 -4837.67,2540.09 126.82,321.05 195.79,506.98 272.92,690.3 470.2,1130.33 930.75,2265.1 1421.71,3386.67 138.69,318.53 68.23,497.48 -149.81,756.61 -749.05,890.26 -1441,1828.72 -2184.11,2724.23 -115.69,138.92 -400.48,236.44 -581.44,205.07 -989.34,-171.91 -1969.03,-398.56 -2955.32,-590.19 -797.85,-155.07 -1094.8,-209.81 -1347.4,50.73l-1458.8 4846.93z"/>
  <path class="fil1" d="M6758.85 27158.9c-1081.37,-2156.95 -1257.95,-4605.9 -497.34,-6895.69 760.55,-2289.79 2367.3,-4146.31 4524.25,-5227.69 2156.9,-1081.29 4605.91,-1257.95 6895.7,-497.33 2289.79,760.54 4146.39,2367.36 5227.68,4524.33 1081.31,2156.95 1257.89,4605.9 497.34,6895.61 -760.61,2289.87 -2367.36,4146.39 -4524.32,5227.69 -2156.89,1081.29 -4605.84,1257.95 -6895.62,497.41 -2289.86,-760.62 -4146.39,-2367.36 -5227.69,-4524.33zm-4285.22 3828.38c167.46,130.6 357.61,62.23 830.26,-102.79 845.53,-295.32 1691.44,-590.63 2546.39,-856.06 134.6,-41.75 363.85,25.88 471.83,126.22 642.1,596.79 1248.24,1232.59 1896.13,1822.63 200.9,182.9 274.84,308.45 191.26,582.27 -333.95,1094.2 -637.29,2197.82 -948.47,3286.09 844.05,612.66 3240.86,1558.25 4141.05,1623.72 483.02,-977.39 991.56,-1968.43 1460.5,-2977.87 145.94,-314.23 285.89,-399.29 649.74,-381.27 844.13,41.61 1694.62,6.31 2539.49,-45.83 342.19,-21.14 558.67,7.04 737.12,348.19 462.62,884.03 978.88,1739.94 1456.56,2616.33 128.37,235.69 273.36,327.14 521.51,218.12 1167.33,-512.03 2333.84,-1025.6 3500.94,-1538 286.95,-125.93 160.72,-342.11 101.83,-524.34 -297.99,-922.14 -591.08,-1846.36 -919.62,-2757.6 -123.41,-342.2 -64.07,-541.32 207.14,-791.47 717.82,-661.83 1392.41,-1370.54 2137.38,-2113.65 1086.35,306.3 2285.78,644.48 3518.6,992.08 762.77,-1279.9 1266.86,-2643.85 1571.88,-4134.68 -1112.59,-555.17 -2225.48,-1110.59 -3206.29,-1599.99 -52.81,-1164.88 -77.8,-2244.84 -165.39,-3319.77 -25.43,-311.11 56.81,-437.11 305.93,-572.32 864.52,-469.29 1714.36,-965.6 2575.76,-1440.84 186.15,-102.78 306.82,-196.6 238.59,-438.15 -344.57,-1220.73 -787.4,-2395.99 -1483.72,-3468.25 -155.22,-239.02 -304.73,-256.97 -543.46,-177.39 -960.86,320.39 -1927.8,622.38 -2887.25,946.77 -232.42,78.54 -367.4,68.01 -564.38,-128.01 -683.11,-679.85 -1396.49,-1331.08 -2124.92,-1962.5 -186.08,-161.39 -189.56,-283.68 -133.8,-481.4 310.6,-1101.62 613.04,-2205.46 926.15,-3336.9 -1285.99,-727.98 -2609.87,-1290.96 -4072.52,-1596.29 -566.23,1134.78 -1128.91,2262.36 -1667.41,3341.35 -1218.5,25.74 -2398.21,50.66 -3660.69,77.28 -432.22,-762.33 -923.78,-1644.19 -1430.02,-2517.54 -415.53,-716.78 -257.26,-712.2 -1100.06,-436.46 -80.39,26.27 -170.35,23.45 -255.87,34.12 -696.97,312.31 -1393.89,624.6 -2090.8,936.83 -141.95,97.31 -272.85,219.98 -427.85,286.8 -403.37,173.68 -519.36,399.95 -351.98,848.12 348.71,933.94 639.14,1890.12 930.68,2844.24 38.11,124.96 -11.8,332.92 -100.12,431.33 -576.1,641.96 -1209.46,1235.77 -1749.81,1905.25 -264.31,327.65 -470.19,356.14 -836.19,245.78 -1037.91,-313.12 -2088.73,-583.52 -3239.59,-899.6 -540.87,1379.35 -1068.63,2724.9 -1602.23,4085.57 245.63,128.38 385.8,204.62 528.49,275.74 880.02,439.05 1756.18,886.03 2643.84,1309.12 252.01,120.15 302.96,266.11 306.74,538.06 13.13,934.46 86.41,1868.02 105.84,2802.56 2.96,144.91 -118.67,353.9 -244.97,429.85 -691.2,415.75 -1405.32,793.32 -2104.97,1195.43 -566.08,325.28 -775.08,448.09 -791.62,739.18l1662.37 3709.94z"/>
  <path class="fil2" d="M52466.65 19310.66c355.17,-1886.86 2172.54,-3128.57 4059.18,-2773.56 1887.01,355.03 3128.43,2172.4 2773.7,4059.18l0 0c-355.17,1886.86 -2172.54,3128.57 -4059.17,2773.56 -1887.01,-355.02 -3128.8,-2172.39 -2773.71,-4059.18l0 0zm-3924.41 -1776.95l-396.85 2110.98c32.93,107.17 136.24,134.75 391.14,205.66 455.73,126.82 911.91,253.64 1362.67,396.25 71.2,22.47 150.4,120.97 166.87,197.05 98.79,452.55 169.9,911.17 273.22,1362.52 32.18,139.88 26.47,216.63 -92.56,310.23 -474.94,374.16 -939.13,761.51 -1402.2,1139.82 181.4,520.47 936.46,1653.31 1307.27,1953.01 504.38,-278.41 1023.68,-555.11 1531.55,-851.76 158.04,-92.26 244.51,-87 396.84,30.48 353.54,272.55 733.18,513.65 1115.49,745.79 155,93.96 240.36,171.46 215.07,373.26 -65.78,523.06 -99.89,1050.07 -156.93,1574.41 -15.27,140.91 20.33,224.26 160.79,251.85 660.49,129.79 1321.73,258.61 1982.67,388.18 162.27,31.81 172.58,-100.05 202.03,-196.91 148.92,-489.92 300.43,-979.33 432.45,-1473.77 49.76,-185.7 135.49,-254.16 328.32,-280.93 511.27,-70.75 1017.59,-174.88 1564.84,-272.69 378.83,460.4 797.47,968.71 1227.62,1491.27 716.79,-325.36 1346.65,-765.22 1928.39,-1320.18 -315.34,-576.25 -630.68,-1152.79 -908.5,-1660.89 328.32,-521.37 642.92,-997.5 928.75,-1490.31 83.06,-142.62 156.55,-172.5 305.4,-156.11 516.62,57.04 1035.17,97.96 1552.17,151.37 111.76,11.56 192.08,7.27 235.38,-118.14 218.49,-633.58 380.76,-1277.02 402.19,-1952.2 4.6,-150.48 -55.1,-203.36 -182.59,-240.81 -513.51,-150.7 -1024.05,-311.11 -1537.99,-459.66 -124.74,-35.97 -180.22,-81.28 -206.62,-225.68 -91.52,-500.97 -204.39,-998.54 -330.32,-1492.09 -32.11,-126.16 3.48,-180.29 87.29,-249.27 466.85,-384.31 930.67,-772.18 1407.91,-1168.66 -338.7,-703.58 -743.19,-1346.94 -1285.84,-1920.45 -587.82,321.72 -1172.15,641.28 -1730.89,947.14 -536.5,-356.14 -1055.79,-701.07 -1611.5,-1070.1 42.13,-461.08 94.56,-991.93 138.17,-1523.46 35.97,-436.31 103.31,-386.62 -345.53,-521.07 -42.87,-12.84 -81.13,-41.16 -121.33,-62.3 -396.47,-74.61 -792.95,-149.29 -1189.8,-223.83 -28.25,-0.22 -57.03,0.97 -85.73,2.23 -63.11,2.67 -126.23,5.34 -186.38,-6.82 -227.23,-46.28 -345.89,16.98 -408.26,261.86 -130.16,510.4 -292.43,1012.86 -453.51,1514.72 -21.43,65.7 -105.61,140.91 -173.69,156.92 -443.56,104.87 -897.45,171.62 -1333.68,299.26 -213.59,62.44 -311.19,12.74 -436.66,-145.51 -356.29,-448.84 -730.59,-882.99 -1134.64,-1367.06 -650.62,435.49 -1285.09,860.15 -1926.83,1289.7 67.71,129.78 105.61,205.14 146.19,279 249.47,455.81 494.81,913.92 752.3,1365.05 73.12,128.16 51.32,206.84 -29.07,326.02 -275.88,409.39 -525.82,836.48 -799.03,1247.87 -42.5,63.78 -158.05,117.77 -235.76,112.66 -425.12,-27.97 -849.18,-79.43 -1273.91,-115.92 -343.67,-29.52 -471.45,-39.24 -566.38,82.02z"/>
  <path class="fil3" d="M51658.05 18897.87l-6753.66 0c-691.14,0 -1251.73,560.37 -1251.73,1251.58l0 2212.8c0,691.14 560.59,1251.51 1251.73,1251.51l6753.66 0c691.13,0 1251.36,-560.37 1251.36,-1251.51l0 -2212.8c0,-691.21 -560.23,-1251.58 -1251.36,-1251.58z"/>
  <polygon class="fil4" points="42711.23,65383.95 35558.12,68681.15 35558.12,69411.32 61032.28,69411.32 61032.28,68681.15 53814.87,65383.95 "/>
  <polygon class="fil4" points="42711.23,65390.02 53819.02,65390.02 53819.02,51252.52 42711.23,51252.52 "/>
  <path class="fil4" d="M81878.22 55687.48l0 -31880.31c0,-1514.78 -1228.14,-2742.7 -2742.56,-2742.7l-61813.08 0c-1514.7,0 -2742.7,1227.92 -2742.7,2742.7l0 31880.31 67298.34 0z"/>
  <polygon class="fil5" points="35558.12,69411.32 61032.36,69411.32 61032.36,68681.15 35558.12,68681.15 "/>
  <polygon class="fil5" points="42711.23,65383.95 53814.87,65383.95 53814.87,63725 42711.23,63725 "/>
  <path class="fil3" d="M14579.88 55687.48l0 5108.8c0,1062.32 702.4,1923.79 1568.92,1923.79l64160.86 0c866.23,0 1568.56,-861.47 1568.56,-1923.79l0 -5108.8 -67298.34 0z"/>
  <path class="fil6" d="M48960.15 20150.34c0,345.08 -279.75,624.82 -624.98,624.82 -345.15,0 -624.52,-279.74 -624.52,-624.82 0,-345.01 279.37,-624.75 624.52,-624.75 345.23,0 624.98,279.74 624.98,624.75z"/>
  <path class="fil7" d="M80302.99 54302.93l0 -30410.61c0,-797.18 -669.7,-1443.45 -1495.14,-1443.45l-61157.17 0c-825.88,0 -1495.35,646.27 -1495.35,1443.45l0 30410.61 64147.66 0z"/>
  <polygon class="fil8" points="18972.34,51807.04 57528.07,51807.04 57528.07,24903.83 18972.34,24903.83 "/>
  <polygon class="fil3" points="18972.34,28053.76 57528.07,28053.76 57528.07,24903.88 18972.34,24903.88 "/>
  <path class="fil9" d="M60222.94 52005.27l0 -11667.35 1771.02 0c212.03,643.74 499.04,1267.53 860.73,1859.12l0 830.04 -2631.75 0 0 8978.19z"/>
  <path class="fil10" d="M73881.2 52005.27l-2632.05 0 0 -5551.26c898.85,-76.53 1787.33,-289.31 2632.05,-637.95l0 6189.21z"/>
  <path class="fil10" d="M70205.67 52005.27l-2632.05 0 0 -6008.18c853.62,294.66 1741.35,456.18 2632.05,484.52l0 5523.66zm-401.22 -6574.93c-759.44,-65.41 -1511.45,-240.66 -2230.83,-525.81l0 0c719.38,285.15 1472.14,460.4 2230.83,525.81z"/>
  <path class="fil10" d="M77609.38 52005.27l-2632.05 0 0 -6734.9c635.39,-374.86 565.38,-783.34 573.58,-773.39 0,0 1216.72,-2531.47 2058.47,-1599.98l0 9108.27zm0 -5682.9l-1241.49 -989.63 -0.74 0.45c-19.29,-62.01 -223.23,-730.21 -233.62,-849.62 0,-6.89 -2.22,-14.16 -4.44,-21.43 59.32,-48.95 117.91,-99.08 175.76,-149.59l1304.53 1273.53 0 736.29zm0 -2707.84l-318.9 -311.56c110.51,-133.12 216.55,-268.25 318.9,-405.97l0 717.53zm-1558.91 -475.68c2.23,-2.3 5.19,-4.97 7.41,-7.27 -2.22,2.3 -5.18,4.97 -7.41,7.27z"/>
  <path class="fil10" d="M66530.37 52005.27l-2631.76 0 0 -8424.78c111.02,121.26 226.57,240.29 345.53,356.64 691.57,675.41 1464.57,1216.5 2286.23,1623.37l0 6444.77zm0 -7606.24c-520.85,-301.56 -1015.29,-667.77 -1471.48,-1098.29 456.19,430.52 950.63,796.37 1471.48,1098.29l0 0zm-1544.16 -1167.55c0,-0.37 0.37,0 0,-0.37 0.37,0.37 0,0 0,0.37z"/>
  <polygon class="fil10" points="60222.94,52005.27 62854.65,52005.27 62854.65,43027.08 60222.94,43027.08 "/>
  <polygon class="fil11" points="20302.54,33918.51 55889.73,33918.51 55889.73,29350.9 20302.54,29350.9 "/>
  <polygon class="fil11" points="32984.51,36386.37 55889.73,36386.37 55889.73,35215.71 32984.51,35215.71 "/>
  <polygon class="fil3" points="20302.54,48726.07 31570.52,48726.07 31570.52,35215.77 20302.54,35215.77 "/>
  <path class="fil11" d="M55889.8 38854.29c-7663.14,0 -15251.45,0 -22905.29,0l0 -1170.59 22905.29 0 0 1170.59z"/>
  <path class="fil11" d="M55889.8 46258.08l-22905.29 0 0 -1170.6c7622.83,0 15256.32,0 22905.29,0l0 1170.6z"/>
  <polygon class="fil11" points="32984.51,48726.07 55889.73,48726.07 55889.73,47555.43 32984.51,47555.43 "/>
  <path class="fil0" d="M4216.61 40060.48l21393.26 -38.64c321.28,-0.37 582.19,259.5 582.77,580.92l50.74 28189.75c0.58,321.45 -259.35,582.07 -580.63,582.81l-21393.33 38.69c-321.28,0.38 -582.18,-259.49 -582.78,-580.94l-50.72 -28189.74c-0.6,-321.43 259.35,-582.04 580.69,-582.85z"/>
  <polygon class="fil12" points="4810.44,40878.28 25018.94,40841.94 25068.55,68395.27 4860.06,68431.63 "/>
  <path class="fil13" d="M19293.62 39644.13c-0.23,-124 -100.86,-224.2 -224.79,-223.83l-8485.16 15.28c-123.92,0 -224.19,100.64 -223.97,224.64l1.56 882.1 8933.91 -16.09 -1.55 -882.1z"/>
  <path class="fil13" d="M14828.25 40551.88c-473.97,0.75 -858.89,-382.67 -859.77,-856.43 -0.82,-474.2 382.68,-859.18 856.65,-859.92 473.99,-0.75 858.89,382.68 859.78,856.8 0.88,473.83 -382.68,858.82 -856.66,859.55zm-3.93 -2196.19c-739.11,1.12 -1337.16,601.54 -1335.83,1340.5 1.34,738.96 601.55,1337.09 1340.65,1335.53 739.03,-1.11 1337.09,-601.17 1335.76,-1340.5 -1.34,-738.96 -601.54,-1337.08 -1340.58,-1335.53z"/>
  <path class="fil14" d="M19156.19 39437.5c80.62,34.06 137.28,113.62 137.43,206.63l1.55 882.1 -8933.91 16.09c1.11,610.74 497.26,1105.18 1108.29,1104.07l6721.33 -11.87c611.03,-1.19 1105.41,-497.49 1104.29,-1108.29l-1.55 -882.1c-0.15,-93.01 -56.81,-172.57 -137.43,-206.63z"/>
  <path class="fil15" d="M10583.67 39435.58l0 0c-77.5,0 -145.73,39.38 -185.93,99.15 40.2,-59.77 108.43,-99.15 185.93,-99.15z"/>
  <path class="fil15" d="M10369.63 39593.63c4.39,-14.17 10.09,-27.53 16.92,-40.57 -6.83,13.04 -12.53,26.4 -16.92,40.57z"/>
  <path class="fil6" d="M19946.02 48857.72l2637.92 -4.67 -4.75 -2637.84 -2637.91 4.67 4.74 2637.84zm2755.62 112.5l-2872.79 5.34 -5.19 -2872.86 2872.78 -5.33 5.2 2872.85z"/>
  <path class="fil6" d="M19954.63 53637.75l2637.91 -4.52 -4.67 -2638.28 -2637.98 4.96 4.74 2637.84zm2755.61 112.58l-2872.79 4.97 -5.19 -2872.41 2872.78 -5.41 5.2 2872.85z"/>
  <path class="fil6" d="M19963.24 58417.94l2637.98 -4.59 -4.75 -2638.21 -2637.91 4.89 4.68 2637.91zm2755.6 112.51l-2872.78 4.97 -5.19 -2872.49 2872.78 -5.35 5.19 2872.87z"/>
  <path class="fil6" d="M19971.91 63198.06l2637.91 -4.97 -4.75 -2637.92 -2637.9 5.05 4.74 2637.84zm2755.53 112.5l-2872.78 4.97 -5.19 -2872.86 2872.78 -4.89 5.19 2872.78z"/>
  <polygon class="fil15" points="6326.4,46599.08 18621.03,46576.9 18620.29,46163.59 6325.66,46185.77 "/>
  <polygon class="fil15" points="6328.56,47770.11 18623.11,47747.86 18622.44,47334.55 6327.75,47356.43 "/>
  <polygon class="fil15" points="6330.63,48941.15 18625.26,48918.9 18624.52,48505.22 6329.9,48527.4 "/>
  <polygon class="fil15" points="6335.31,51542.57 18629.93,51520.4 18629.18,51106.71 6334.56,51128.96 "/>
  <polygon class="fil15" points="6337.46,52713.24 18632.08,52691.44 18631.34,52277.75 6336.72,52299.92 "/>
  <polygon class="fil15" points="6339.54,53884.27 18634.16,53862.02 18633.41,53448.79 6338.79,53470.96 "/>
  <polygon class="fil15" points="6343.76,56226.27 18638.38,56204.09 18637.64,55790.42 6343.02,55812.59 "/>
  <polygon class="fil15" points="6345.92,57396.94 18640.46,57375.13 18639.79,56961.45 6345.09,56983.63 "/>
  <polygon class="fil15" points="6347.99,58567.9 18642.54,58545.72 18641.87,58132.41 6347.25,58154.66 "/>
  <polygon class="fil15" points="6352.22,60909.97 18646.84,60887.72 18646.09,60474.12 6351.4,60496.29 "/>
  <polygon class="fil15" points="6354.29,62081.01 18648.91,62058.76 18648.18,61645.08 6353.55,61667.25 "/>
  <polygon class="fil15" points="6356.36,63251.6 18651.06,63229.43 18650.25,62816.12 6355.63,62838.29 "/>
  <polygon class="fil15" points="6361.85,66279.02 20545.49,66253.43 20544.82,65840.12 6361.12,65865.71 "/>
  <polygon class="fil15" points="6363.63,67280.92 23344.41,67250.29 23343.66,66836.98 6362.89,66867.59 "/>
  <polygon class="fil2" points="21251,48500.62 20358.89,46969.9 20678.1,46783.89 21195.98,47672.52 22041.29,45644.3 22382.37,45786.62 "/>
  <polygon class="fil2" points="21259.75,53343.11 20367.64,51812.75 20686.84,51626.74 21204.72,52515 22050.03,50487.15 22391.11,50629.11 "/>
  <polygon class="fil2" points="21276.82,62811.52 20384.63,61280.79 20703.9,61094.79 21221.71,61982.97 22067.1,59955.12 22408.17,60097.15 "/>
  <polygon class="fil2" points="22270.74,56372.08 22013.48,56112.21 21279.41,56839.75 20542.75,56114.96 20286.44,56375.56 21019.77,57096.88 20288.95,57821.3 20546.23,58080.8 21280.3,57353.25 22016.96,58078.13 22273.27,57817.51 21539.94,57096.13 "/>
  <polygon class="fil6" points="10622.68,44831.02 10622.68,43454.56 10074.1,43454.56 10074.1,43333.97 11344.14,43333.97 11344.14,43454.56 10795.55,43454.56 10795.55,44831.02 "/>
  <polygon class="fil6" points="12745.75,44710.51 12745.75,44831.02 11644.72,44831.02 11644.72,43333.97 12706.89,43333.97 12706.89,43454.56 11816.41,43454.56 11816.41,43978.82 12461.04,43978.82 12461.04,44099.33 11816.41,44099.33 11816.41,44710.51 "/>
  <path class="fil6" d="M12921.15 44472.89l148.99 -49.77c50.14,106.74 114.21,185.64 192.31,236.52 78.09,50.87 173.91,76.16 287.45,76.16 116.88,0 210.99,-26.4 282.41,-80.02 71.43,-53.18 107.17,-123.19 107.17,-210.47 0,-69.28 -23.43,-126.67 -70.16,-171.4 -46.79,-44.79 -126.08,-85.73 -237.99,-122.88 -60.96,-19.52 -141.79,-43.24 -242.44,-70.76 -100.56,-27.95 -165.08,-48.65 -193.49,-62 -89.36,-41.75 -152.85,-86.1 -190.3,-133.56 -37.6,-47.09 -56.44,-105.62 -56.44,-174.88 0,-124.37 47.17,-221.97 141.58,-293.17 94.33,-71.2 224.19,-106.8 389.5,-106.8 147,0 268.25,29.15 363.92,87.66 95.6,58.15 168.42,147.74 218.56,268.63l-145.36 37.52c-45.91,-93.37 -104.94,-162.26 -177.17,-206.62 -72.32,-44.42 -161.39,-66.59 -267.43,-66.59 -102.72,0 -186.01,23.73 -249.94,71.56 -63.86,48.21 -95.82,110.58 -95.82,187.49 0,57.84 20.69,106.79 62,146.54 41.38,39.83 105.46,72.39 192.31,97.23 33.37,9.94 81.8,24.11 145.28,41.31 182,50.2 299.4,89.59 351.98,118.66 84.33,44.35 145.44,93.37 183.48,146.18 37.98,53.17 57.04,115.61 57.04,187.92 0,130.83 -51.18,234.96 -153.44,312.68 -102.35,77.65 -240.74,116.29 -415.25,116.29 -157.01,0 -286.19,-31 -387.65,-93 -101.46,-62.01 -181.92,-158.79 -241.1,-290.43z"/>
  <polygon class="fil6" points="14828.69,44831.02 14828.69,43454.56 14280.11,43454.56 14280.11,43333.97 15550.15,43333.97 15550.15,43454.56 15001.57,43454.56 15001.57,44831.02 "/>
  <polygon class="fil6" points="15878.4,44831.02 16049.99,44831.02 16049.99,43333.98 15878.4,43333.98 "/>
  <polygon class="fil6" points="16740.18,43442.32 16740.18,44831.02 16573.53,44831.02 16573.53,43333.97 16852.83,43333.97 17740.94,44597.26 17740.94,43333.97 17907.5,43333.97 17907.5,44831.02 17724.62,44831.02 "/>
  <path class="fil6" d="M19479.4 44663.04c-61.78,66.23 -134.83,115.63 -219.16,148.11 -84.4,32.93 -182.51,49.39 -294.35,49.39 -229.68,0 -404.56,-66.6 -524.85,-198.97 -120.23,-132.83 -180.37,-324.91 -180.37,-576.33 0,-249.19 61.41,-441.27 184.14,-576.32 122.75,-135.5 296.44,-203.2 521.08,-203.2 166.13,0 298.95,35.96 398.33,107.46 99.31,71.63 172.88,184.07 220.41,337.96l-161.52 27.14c-40.13,-120.52 -97.53,-209.66 -172.29,-267.06 -74.68,-57.41 -170.58,-86.1 -287.45,-86.1 -167.02,0 -296.06,55.84 -387.06,167.61 -91,111.69 -136.46,270.17 -136.46,475.23 0,221.23 46.13,388.47 138.32,500.97 92.33,112.51 229.46,169.17 411.53,169.17 136.9,0 247.18,-32.19 330.69,-95.67 83.43,-63.93 125.26,-148.1 125.26,-252.6l0 -159.97 -461 0 0 -112.5 646.41 0 0 713.66 -151.66 0 0 -167.98z"/>
  <path class="fil9" d="M65096.8 30452.57l-4480.13 0 0 -5551.41 5551.26 0 0 4866.66c-369.63,200.09 -727.47,428.22 -1071.13,684.75z"/>
  <polygon class="fil9" points="67150.15,25655.47 77979.75,25655.47 77979.75,24901.15 67150.15,24901.15 "/>
  <polygon class="fil9" points="67150.15,27254.51 74458.67,27254.51 74458.67,26500.18 67150.15,26500.18 "/>
  <path class="fil9" d="M76878.14 28853.53l-4872.52 0c-536.95,-98.93 -1079.82,-148.4 -1623.44,-148.4 -542.87,0 -1085.75,49.47 -1621.21,148.4l-1610.82 0 0 -754.31 9727.99 0 0 754.31z"/>
  <path class="fil16" d="M76140.95 43166.36c167.61,-171.02 323.35,-347.83 468.71,-528.04l3108.18 3035.42c191.34,186.38 125.34,563.72 -146.85,842.27 -272.18,279.01 -647.43,353.61 -838.78,166.88l-3108.17 -3035.43c176.5,-149.29 350.04,-309.63 516.91,-481.1z"/>
  <path class="fil17" d="M70485.27 45459.86c-93.45,0 -186.9,-1.56 -279.6,-5.05l0 -894.33 864 877.86c-195.04,14.17 -389.36,21.52 -584.4,21.52zm-2911.65 -555.33c-356.73,-141.59 -706.04,-309.94 -1043.25,-505.5l0 -3574.3 1043.25 1060.83 0 3018.97zm-3675.01 -2975.73c-883.21,-1322.93 -1326.78,-2853.35 -1326.78,-4382.16 0,-237.99 10.76,-476.05 32.19,-712.92l1294.59 1315.65 0 3779.43z"/>
  <polygon class="fil18" points="63898.61,41928.8 63898.61,38149.37 64973.98,39243.12 63898.61,39243.12 "/>
  <path class="fil19" d="M70205.67 45454.81c-134.23,-4.52 -267.72,-12.97 -401.22,-24.47 -758.69,-65.41 -1511.45,-240.66 -2230.83,-525.81l0 -3018.97 2632.05 2674.92 0 894.33z"/>
  <path class="fil19" d="M66530.37 44399.03c-520.85,-301.92 -1015.29,-667.77 -1471.48,-1098.29 -24.1,-22.99 -48.57,-45.97 -72.68,-69.26 0,-0.37 0.37,0 0,-0.37 -8.81,-8.46 -18.01,-17.65 -27.14,-26.11l0 0c-404.93,-395.66 -758.54,-823.51 -1060.46,-1276.2l0 -2685.68 1075.37 0 1556.39 1581.61 0 3574.3z"/>
  <path class="fil17" d="M73881.2 44689.45l0 -16.84c383.42,-192.45 750.53,-415.98 1096.13,-667.76l0 42.13c-350.79,246.07 -717.9,460.32 -1096.13,642.47zm1096.13 -2795.88l-1096.13 -1114.37 0 -2636.35 1096.13 1114.44 0 2636.28zm2632.05 -1020.64l0 -179.09c295.17,-698.77 495.41,-1452.64 580.69,-2246.7 25.96,-245.34 40.8,-488.74 44.5,-730.59l-625.19 -635.2 0 -1033.31 -1016.03 0 -2712.15 -2756.43 0 -1656.88 -1630.11 0 -1872.62 -1903.18c2.96,0 5.94,0 9.65,0 0,0 0.73,0 0.73,0 0,0 0.74,0 0.74,0 1977.94,0.23 3961.8,741.64 5498.46,2228.61l0.75 0.52c3.71,4.23 7.41,8.08 12.6,12.31 4.45,4.37 8.9,9.12 13.36,13.49 1589.31,1551.87 2387.31,3606.56 2388.04,5658.51 0,1102.96 -231.38,2205.09 -693.42,3227.94zm-6360.23 -2768.72l-6176.83 -6278.73c-1012.25,941.57 -1782.59,2152.59 -2191.67,3536.1 345.97,-1196.26 982.81,-2325.99 1912.3,-3277.87 867.18,-887.74 1895.08,-1524.79 2993.52,-1910.07 -418.28,149.14 -821.73,333.28 -1205.22,549.18l4667.9 4744.88 0 2636.51z"/>
  <path class="fil18" d="M71249.15 38104.21l0 -2636.51 848.42 862 -848.42 0 0 1774.51zm2632.05 -4812.6l-1630.11 -1656.88 1630.11 0 0 1656.88z"/>
  <path class="fil18" d="M74977.33 41893.57l0 -2636.28 461.3 468.42 -461.3 0 0 2167.86zm2632.05 -4812.22l-1016.03 -1033.31 1016.03 0 0 1033.31z"/>
  <path class="fil19" d="M73061.7 45027.04c280.33,-102.57 553.99,-221.23 819.5,-354.43l0 16.84c-267.73,128.6 -541.4,241.1 -819.5,337.59zm819.5 -4247.84l-2632.05 -2674.99 0 -1774.51 848.42 0 1783.63 1813.15 0 2636.35z"/>
  <path class="fil19" d="M74977.33 44046.98l0 -42.13c400.48,-290.87 772.78,-619.19 1113.19,-980.07l-1113.19 -1131.21 0 -2167.86 461.3 0 1763.59 1792.82c150.56,-265.21 287.01,-540.35 407.16,-824.69l0 179.09c-364.88,807.12 -874.38,1564.85 -1528.5,2234.91l0 0c-7.42,7.64 -14.84,15.73 -23,23.74 -2.22,2.3 -5.18,4.97 -7.41,7.27 -335.96,340.18 -694.9,642.47 -1073.14,908.13z"/>
  <path class="fil20" d="M71069.67 45438.34l-864 -877.86 0 -6712.29 -2632.05 0 0 4037.37 -1043.25 -1060.83 0 -5404.04 -2631.76 0 0 2728.68 -1294.59 -1315.65c44.72,-496.75 136.98,-989.63 276.63,-1472.14 409.08,-1383.51 1179.42,-2594.53 2191.67,-3536.1l6176.83 6278.73 0 7318.49c-60.08,6.15 -120.14,11.12 -179.48,15.64zm2811.53 -765.73l0 -3893.41 1096.13 1114.37 0 2111.28c-345.6,251.78 -712.71,475.31 -1096.13,667.76z"/>
  <polygon class="fil21" points="67573.62,41885.56 67573.62,37848.19 70205.67,37848.19 70205.67,41111 67573.62,41111 "/>
  <polygon class="fil21" points="66530.37,39243.12 64973.98,39243.12 63898.61,38149.37 63898.61,35420.69 66530.37,35420.69 "/>
  <path class="fil22" d="M71249.15 45422.7l0 -7318.49 2632.05 2674.99 0 3893.41c-265.51,133.2 -539.17,251.86 -819.5,354.43 -588.86,203.95 -1197.73,335.96 -1812.55,395.66z"/>
  <polygon class="fil22" points="70205.67,44560.48 67573.62,41885.56 67573.62,41111 70205.67,41111 "/>
  <path class="fil22" d="M74977.33 44004.85l0 -2111.28 1113.19 1131.21c-340.41,360.88 -712.71,689.2 -1113.19,980.07z"/>
  <polygon class="fil22" points="66530.37,40824.73 64973.98,39243.12 66530.37,39243.12 "/>
  <path class="fil20" d="M77609.38 40693.84l0 -3612.49 625.19 635.2c-3.7,241.85 -18.54,485.25 -44.5,730.59 -85.28,794.06 -285.52,1547.93 -580.69,2246.7zm-2632.05 -1436.55l-1096.13 -1114.44 0 -4851.24 2712.15 2756.43 -1616.02 0 0 3209.25zm-3728.18 -3789.59l-4667.9 -4744.88c383.49,-215.9 786.94,-400.04 1205.22,-549.18 835.82,-293.54 1713.17,-440.82 2592,-442.09l1872.62 1903.18 -1001.94 0 0 3832.97z"/>
  <polygon class="fil21" points="73881.2,36329.7 72097.57,36329.7 71249.15,35467.7 71249.15,31634.73 72251.09,31634.73 73881.2,33291.61 "/>
  <polygon class="fil21" points="77609.38,39725.71 75438.63,39725.71 74977.33,39257.29 74977.33,36048.04 76593.35,36048.04 77609.38,37081.35 "/>
  <polygon class="fil22" points="73881.2,38142.85 72097.57,36329.7 73881.2,36329.7 "/>
  <path class="fil22" d="M77202.22 41518.53l-1763.59 -1792.82 2170.75 0 0 968.13c-120.15,284.34 -256.6,559.48 -407.16,824.69z"/>
  <path class="fil6" d="M64959.07 43205c-3117,-3044.25 -3191.24,-8023.42 -166.12,-11121.29 3025.41,-3097.79 8004.73,-3141.33 11121.81,-97.23 3117.07,3044.18 3191.97,8023.12 166.12,11121.36 -3025.12,3097.87 -8004.43,3141.04 -11121.81,97.16zm-714.93 732.13c3523.79,3441.48 9153.51,3392.09 12573.92,-110.2 3420.41,-3501.98 3335.86,-9130.97 -187.63,-12572.51 -3524.23,-3441.55 -9153.96,-3392.3 -12574.15,109.91 -3420.03,3502.14 -3335.86,9131.34 187.86,12572.8z"/>
  <path class="fil23" d="M70488.23 45946.59c-2112.9,0 -4232.26,-796.73 -5868.24,-2394.43 -3310.27,-3232.55 -3389.1,-8520.09 -176.42,-11809.68 1624.9,-1663.7 3780.46,-2497.81 5942.32,-2497.81 2112.91,0 4232.49,796.81 5867.78,2394.59 3310.65,3232.69 3389.27,8520.01 176.52,11809.58 -1624.18,1663.85 -3780.1,2497.75 -5941.96,2497.75zm-7916.4 -8399.95c0,2051.59 798.3,4106.19 2387.24,5658.36 1541.04,1504.77 3536.39,2254.86 5526.2,2254.86 2035.78,0 4065.62,-785.69 5595.61,-2352.02 1483.26,-1518.86 2221.92,-3489.67 2221.92,-5462.85l0 0c-0.73,-2051.95 -798.73,-4106.64 -2388.04,-5658.51 -4.46,-4.37 -8.91,-9.12 -13.36,-13.49 -5.19,-4.23 -8.89,-8.08 -12.6,-12.31l-0.75 -0.52c-1537.4,-1487.2 -3520.52,-2228.54 -5498.46,-2228.61 0,0 -0.74,0 -0.74,0l0 0c-2.96,0 -6.67,0 -10.38,0 -878.83,1.27 -1756.18,148.55 -2592,442.09 -1098.44,385.28 -2126.34,1022.33 -2993.52,1910.07 -929.49,951.88 -1566.33,2081.61 -1912.3,3277.87 -139.65,482.51 -231.91,975.39 -276.63,1472.14 -21.43,236.87 -32.19,474.93 -32.19,712.92l0 0z"/>
  <path class="fil6" d="M89372.4 56487.99l482.8 -500.89c482.8,-500.98 468.71,-1298.08 -32.63,-1780.66l-8973.74 -8701.05c-501.34,-482.58 -1298.6,-468.04 -1780.66,32.48l-483.54 501.35c-482.8,500.53 -467.97,1297.71 32.63,1780.59l8974.48 8700.75c500.6,482.94 1297.86,468.4 1780.66,-32.57z"/>
 </g>
</svg>
