<?xml version="1.0" encoding="UTF-8"?>
<!DOCTYPE svg PUBLIC "-//W3C//DTD SVG 1.1//EN" "http://www.w3.org/Graphics/SVG/1.1/DTD/svg11.dtd">
<!-- Creator: CorelDRAW 2020 (64-Bit) -->
<svg xmlns="http://www.w3.org/2000/svg" xml:space="preserve" width="1002.95mm" height="705.556mm" version="1.1" style="shape-rendering:geometricPrecision; text-rendering:geometricPrecision; image-rendering:optimizeQuality; fill-rule:evenodd; clip-rule:evenodd"
viewBox="0 0 100294.72 70555.56"
 xmlns:xlink="http://www.w3.org/1999/xlink"
 xmlns:xodm="http://www.corel.com/coreldraw/odm/2003">
 <defs>
  <style type="text/css">
   <![CDATA[
    .fil16 {fill:#0E2E35;fill-rule:nonzero}
    .fil23 {fill:#103D46;fill-rule:nonzero}
    .fil13 {fill:#13375B;fill-rule:nonzero}
    .fil6 {fill:#184655;fill-rule:nonzero}
    .fil5 {fill:#335691;fill-rule:nonzero}
    .fil14 {fill:#355389;fill-rule:nonzero}
    .fil4 {fill:#466EB6;fill-rule:nonzero}
    .fil1 {fill:#50BFA5;fill-rule:nonzero}
    .fil3 {fill:#5184CE;fill-rule:nonzero}
    .fil10 {fill:#9AC1F9;fill-rule:nonzero}
    .fil15 {fill:#9BC1F9;fill-rule:nonzero}
    .fil9 {fill:#AFD0FB;fill-rule:nonzero}
    .fil19 {fill:#B4D2F9;fill-rule:nonzero}
    .fil11 {fill:#BADAFB;fill-rule:nonzero}
    .fil18 {fill:#BCD8FA;fill-rule:nonzero}
    .fil17 {fill:#C8E1FB;fill-rule:nonzero}
    .fil7 {fill:#CCE6FF;fill-rule:nonzero}
    .fil22 {fill:#D6E7FC;fill-rule:nonzero}
    .fil21 {fill:#DBEBFC;fill-rule:nonzero}
    .fil20 {fill:#E2F0FD;fill-rule:nonzero}
    .fil8 {fill:#E9FFFF;fill-rule:nonzero}
    .fil2 {fill:#F47458;fill-rule:nonzero}
    .fil0 {fill:#F7CC7F;fill-rule:nonzero}
    .fil12 {fill:white;fill-rule:nonzero}
   ]]>
  </style>
 </defs>
 <g id="Layer_x0020_1">
  <metadata id="CorelCorpID_0Corel-Layer"/>
  <path class="fil0" d="M81806.34 -12952.37l1.41 -0.15c2497.31,-8302.9 11254.17,-13008.39 19557.66,-10509.96 8303.48,2498.72 13008.1,11255.03 10509.4,19558.07l0 0c-2498.73,8303.05 -11254.2,13008.55 -19557.66,10509.97 -8303.48,-2498.44 -13008.1,-11254.89 -10510.81,-19557.93zm-5141.01 -603.22c-2827.03,11124.97 3924.32,22475.67 15049.17,25302.71 11124.84,2827.18 22474.23,-3923.76 25302.7,-15048.44 2827.06,-11124.84 -3924.32,-22475.52 -15049.14,-25302.58 -11124.84,-2827.18 -22475.67,3923.62 -25302.73,15048.31z"/>
  <path class="fil0" d="M75950.41 -13737.1c1418.49,-5580.04 4923.52,-10273.88 9872.64,-13216.9 4947.67,-2943.02 10746.76,-3782.91 16326.94,-2364.84 5580.19,1418.07 10273.44,4924.1 13217.05,9872.51 2942.17,4948.38 3782.18,10746.61 2365.1,16326.65 -1418.48,5580.04 -4924.93,10273.88 -9872.63,13216.9 -4949.11,2943.05 -10746.76,3782.77 -16326.94,2364.84 -5580.19,-1418.07 -10273.46,-4924.25 -13217.05,-9872.49 -2943.6,-4948.4 -3782.18,-10746.63 -2365.11,-16326.67zm-13709.84 213.78c98.23,497.19 548.64,670.86 1659,1111.34 1986.03,787.85 3973.35,1575.99 5930.54,2432.63 308.44,134.89 615.44,614.73 653.82,964.52 226,2079.56 326.92,4173.34 574.23,6249.79 76.74,643.42 14.2,985.54 -564.27,1348.98 -2311.1,1452.34 -4582.55,2969.62 -6843.07,4446.52 564.86,2424.24 3412.65,7873.24 4934.19,9397.07 2397.81,-1008.89 4862.42,-2002.39 7285.8,-3091.28 754.73,-338.85 1139.92,-273.76 1768.15,327.05 1456.87,1393.33 3047.35,2658.05 4652.05,3883.53 649.55,496.33 997.78,885.35 786,1779.38 -545.8,2317.62 -950.87,4667.97 -1458.3,6995.26 -136.45,625.4 -17.05,1016.54 599.8,1207.72 2906.64,899.55 5813.31,1795.01 8718.51,2693.44 714.94,220.73 824.38,-366.71 1002.05,-787 903.98,-2129.04 1817.9,-4254.21 2647.95,-6411.38 311.29,-809.89 730.58,-1076.53 1610.4,-1104.1 2328.14,-73.06 4652.05,-297.92 7156.45,-475.01 1482.45,2249.27 3116.99,4732.49 4798.44,7284.93 3375.68,-1117.45 6414.51,-2790.65 9292.73,-5003.98 -1138.49,-2739.05 -2279.83,-5479.25 -3284.73,-7894.11 1724.1,-2183.9 3365.74,-4171.36 4886.58,-6247.37 439.18,-600.8 784.59,-699.72 1445.49,-554.61 2292.64,503.59 4600.89,935.67 6897.78,1423.48 496.05,105.47 859.91,124.66 1114.34,-417.73 1284.89,-2740.49 2321.03,-5552.18 2740.34,-8574.25 93.8,-673.57 -149.25,-939.49 -703.57,-1168.76 -2234.34,-922.59 -4450.22,-1887.96 -6687.41,-2801.32 -542.94,-221.3 -768.95,-451.28 -818.7,-1112.33 -170.56,-2293.49 -440.6,-4582.4 -767.52,-6859.26 -83.86,-581.62 100.92,-807.89 510.27,-1077.51 2281.24,-1502.23 4551.13,-3021.22 6882.12,-4573.32 -1182.54,-3321.81 -2692,-6405.13 -4853.87,-9240.27 -2794.36,1162.94 -5570.23,2318.21 -8226.73,3423.72 -2238.6,-1856.56 -4406.14,-3654.26 -6724.35,-5577.92 410.77,-2050.28 901.13,-4408.84 1351.69,-6775.1 369.54,-1941.97 648.12,-1686.69 -1303.37,-2505.39 -186.2,-78.17 -343.97,-223.87 -514.53,-338.15 -1743.97,-525.17 -3490.81,-1050.22 -5234.78,-1575.41 -407.94,-46.19 -835.75,-29.27 -1219.53,-150.93 -999.2,-316.55 -1562.04,-89.42 -1960.02,980.42 -830.08,2229.52 -1799.42,4408.17 -2763.09,6584.52 -126.51,285.12 -541.53,582.33 -854.23,621.97 -2041.04,258.4 -4111.93,340.41 -6131.66,704.42 -989.26,178.09 -1404.28,-92.1 -1893.22,-862.9 -1382.98,-2185.73 -2856.91,-4314.75 -4438.85,-6682.29 -3129.79,1643.49 -6184.25,3246.63 -9271.41,4868.09 243.05,615.3 375.24,971.63 523.05,1322.98 901.13,2166.28 1783.79,4341.07 2724.71,6490.57 265.8,610.45 130.77,953.42 -287.11,1450.05 -1435.55,1706.17 -2761.67,3504.74 -4185.85,5221 -221.73,266.23 -767.52,453.13 -1114.34,393.01 -1896.07,-329.48 -3773.65,-763.84 -5663.88,-1131.11 -1529.09,-297.19 -2098.19,-402.1 -2582.3,97.23l-2795.79 9289.17z"/>
  <path class="fil1" d="M-47156.63 7946.31c-2072.45,-4133.82 -2410.87,-8827.24 -953.15,-13215.63 1457.59,-4388.39 4536.94,-7946.42 8670.76,-10018.89 4133.69,-2072.3 8827.23,-2410.86 13215.63,-953.15 4388.39,1457.6 7946.58,4537.06 10018.88,8670.9 2072.33,4133.82 2410.75,8827.24 953.15,13215.49 -1457.71,4388.53 -4537.06,7946.56 -8670.88,10018.89 -4133.69,2072.3 -8827.11,2410.86 -13215.5,953.29 -4388.52,-1457.74 -7946.56,-4537.06 -10018.89,-8670.9zm-8212.65 7337.11c320.95,250.29 685.38,119.25 1591.21,-197 1620.46,-565.98 3241.65,-1131.94 4880.17,-1640.65 257.96,-80.02 697.31,49.6 904.25,241.91 1230.59,1143.75 2392.26,2362.26 3633.95,3493.08 385.03,350.51 526.73,591.14 366.55,1115.91 -640.02,2097.05 -1221.36,4212.14 -1817.74,6297.81 1617.62,1174.16 6211.12,2986.39 7936.34,3111.88 925.71,-1873.18 1900.33,-3772.52 2799.05,-5707.11 279.71,-602.22 547.92,-765.25 1245.23,-730.7 1617.77,79.73 3247.76,12.08 4866.95,-87.84 655.81,-40.52 1070.69,13.5 1412.68,667.31 886.63,1694.25 1876.03,3334.6 2791.51,5014.21 246.03,451.7 523.9,626.96 999.49,418.02 2237.19,-981.3 4472.82,-1965.57 6709.57,-2947.58 549.93,-241.34 308.02,-655.66 195.16,-1004.89 -571.1,-1767.3 -1132.82,-3538.57 -1762.46,-5284.97 -236.52,-655.82 -122.8,-1037.43 396.98,-1516.85 1375.7,-1268.4 2668.56,-2626.64 4096.3,-4050.82 2081.99,587.02 4380.72,1235.14 6743.41,1901.33 1461.86,-2452.95 2427.94,-5066.95 3012.53,-7924.13 -2132.29,-1064 -4265.15,-2128.46 -6144.88,-3066.39 -101.21,-2232.51 -149.11,-4302.26 -316.96,-6362.36 -48.76,-596.25 108.87,-837.73 586.31,-1096.85 1656.84,-899.41 3285.58,-1850.58 4936.45,-2761.38 356.75,-196.99 588.02,-376.8 457.25,-839.72 -660.37,-2339.54 -1509.05,-4591.93 -2843.54,-6646.91 -297.48,-458.09 -584.03,-492.49 -1041.55,-339.98 -1841.5,614.03 -3694.64,1192.79 -5533.43,1814.49 -445.44,150.52 -704.13,130.33 -1081.63,-245.34 -1309.19,-1302.94 -2676.39,-2551.01 -4072.43,-3761.14 -356.63,-309.29 -363.3,-543.67 -256.42,-922.59 595.25,-2111.26 1174.89,-4226.79 1774.97,-6395.19 -2464.61,-1395.18 -5001.83,-2474.13 -7805,-3059.3 -1085.19,2174.8 -2163.58,4335.82 -3195.6,6403.71 -2335.28,49.34 -4596.19,97.09 -7015.74,148.11 -828.35,-1461 -1770.42,-3151.11 -2740.64,-4824.87 -796.37,-1373.73 -493.05,-1364.93 -2108.27,-836.48 -154.07,50.33 -326.48,44.93 -490.37,65.39 -1335.76,598.53 -2671.4,1197.05 -4007.04,1795.44 -272.04,186.49 -522.91,421.58 -819.97,549.64 -773.07,332.87 -995.35,766.52 -674.57,1625.43 668.31,1789.9 1224.92,3622.43 1783.64,5451 73.06,239.5 -22.6,638.04 -191.87,826.64 -1104.1,1230.32 -2317.93,2368.38 -3353.51,3651.44 -506.57,627.93 -901.14,682.53 -1602.56,471.03 -1989.17,-600.1 -4003.08,-1118.32 -6208.71,-1724.09 -1036.58,2643.54 -2048.02,5222.29 -3070.67,7830.01 470.74,246.05 739.39,392.16 1012.86,528.46 1686.55,841.44 3365.72,1698.08 5066.93,2508.95 482.96,230.27 580.61,509.99 587.87,1031.19 25.15,1790.9 165.59,3580.07 202.82,5371.11 5.68,277.73 -227.42,678.26 -469.47,823.81 -1324.68,796.79 -2693.3,1520.4 -4034.2,2291.06 -1084.89,623.4 -1485.43,858.76 -1517.13,1416.63l3185.93 7110.13z"/>
  <path class="fil2" d="M40442.61 -7094.89c680.67,-3616.18 4163.67,-5995.92 7779.43,-5315.53 3616.46,680.41 5995.65,4163.4 5315.8,7779.43l0 0c-680.68,3616.18 -4163.67,5995.92 -7779.41,5315.53 -3616.47,-680.38 -5996.36,-4163.38 -5315.82,-7779.43l0 0zm-7521.17 -3405.53l-760.55 4045.71c63.1,205.38 261.1,258.25 749.62,394.13 873.4,243.06 1747.67,486.11 2611.57,759.43 136.44,43.06 288.23,231.83 319.79,377.65 189.33,867.31 325.63,1746.26 523.63,2611.28 61.68,268.06 50.73,415.17 -177.38,594.54 -910.24,717.09 -1799.85,1459.45 -2687.33,2184.47 347.65,997.49 1794.72,3168.59 2505.38,3742.95 966.66,-533.57 1961.89,-1063.85 2935.23,-1632.39 302.88,-176.82 468.6,-166.74 760.55,58.42 677.56,522.34 1405.14,984.42 2137.83,1429.3 297.07,180.08 460.66,328.6 412.2,715.35 -126.07,1002.46 -191.45,2012.47 -300.76,3017.37 -29.28,270.06 38.96,429.81 308.14,482.68 1265.85,248.74 2533.11,495.62 3799.81,743.94 311,60.97 330.75,-191.75 387.19,-377.38 285.4,-938.93 575.78,-1876.88 828.79,-2824.48 95.36,-355.9 259.66,-487.1 629.22,-538.41 979.86,-135.59 1950.23,-335.15 2999.03,-522.62 726.02,882.36 1528.36,1856.55 2352.74,2858.04 1373.73,-623.55 2580.86,-1466.56 3695.78,-2530.14 -604.36,-1104.37 -1208.72,-2209.33 -1741.15,-3183.1 629.23,-999.2 1232.15,-1911.71 1779.94,-2856.19 159.19,-273.32 300.04,-330.6 585.32,-299.18 990.09,109.31 1983.9,187.75 2974.73,290.1 214.19,22.16 368.12,13.93 451.11,-226.42 418.73,-1214.25 729.72,-2447.42 770.8,-3741.4 8.82,-288.39 -105.61,-389.74 -349.93,-461.51 -984.15,-288.81 -1962.6,-596.25 -2947.57,-880.94 -239.07,-68.94 -345.39,-155.78 -395.99,-432.51 -175.4,-960.12 -391.72,-1913.7 -633.07,-2859.6 -61.54,-241.78 6.68,-345.52 167.3,-477.73 894.73,-736.54 1783.64,-1479.9 2698.26,-2239.74 -649.12,-1348.43 -1424.33,-2581.43 -2464.31,-3680.56 -1126.56,616.58 -2246.42,1229.03 -3317.26,1815.19 -1028.2,-682.52 -2023.43,-1343.6 -3088.45,-2050.85 80.75,-883.64 181.22,-1901.03 264.8,-2919.71 68.94,-836.19 198,-740.95 -662.2,-998.64 -82.16,-24.59 -155.48,-78.88 -232.53,-119.4 -759.85,-142.99 -1519.69,-286.11 -2280.27,-428.95 -54.13,-0.44 -109.29,1.85 -164.3,4.26 -120.95,5.11 -241.91,10.23 -357.19,-13.08 -435.48,-88.69 -662.9,32.56 -782.44,501.87 -249.44,978.18 -560.43,1941.14 -869.14,2902.96 -41.08,125.92 -202.41,270.06 -332.89,300.74 -850.09,200.98 -1719.96,328.92 -2556,573.53 -409.35,119.67 -596.39,24.43 -836.87,-278.87 -682.82,-860.2 -1400.17,-1692.25 -2174.53,-2619.97 -1246.93,834.62 -2462.88,1648.48 -3692.78,2471.72 129.77,248.73 202.41,393.15 280.16,534.71 478.12,873.54 948.31,1751.52 1441.79,2616.12 140.15,245.61 98.36,396.4 -55.71,624.82 -528.73,784.59 -1007.73,1603.12 -1531.34,2391.55 -81.45,122.23 -302.9,225.7 -451.84,215.9 -814.73,-53.59 -1627.45,-152.22 -2441.45,-222.16 -658.64,-56.56 -903.55,-75.19 -1085.48,157.2z"/>
  <path class="fil3" d="M38892.91 -7886l-12943.43 0c-1324.55,0 -2398.93,1073.95 -2398.93,2398.66l0 4240.84c0,1324.56 1074.38,2398.52 2398.93,2398.52l12943.43 0c1324.56,0 2398.25,-1073.96 2398.25,-2398.52l0 -4240.84c0,-1324.71 -1073.69,-2398.66 -2398.25,-2398.66z"/>
  <polygon class="fil4" points="21746.29,81204.79 8037.32,87523.91 8037.32,88923.27 56858.68,88923.27 56858.68,87523.91 43026.46,81204.79 "/>
  <polygon class="fil4" points="21746.29,81216.44 43034.43,81216.44 43034.43,54121.84 21746.29,54121.84 "/>
  <path class="fil4" d="M96810.01 62621.47l0 -61098.77c0,-2903.08 -2353.74,-5256.4 -5256.11,-5256.4l-118465.08 0c-2902.94,0 -5256.41,2353.32 -5256.41,5256.4l0 61098.77 128977.6 0z"/>
  <polygon class="fil5" points="8037.32,88923.27 56858.82,88923.27 56858.82,87523.91 8037.32,87523.91 "/>
  <polygon class="fil5" points="21746.29,81204.79 43026.46,81204.79 43026.46,78025.41 21746.29,78025.41 "/>
  <path class="fil3" d="M-32167.59 62621.47l0 9791.03c0,2035.95 1346.16,3686.97 3006.85,3686.97l122964.61 0c1660.13,0 3006.14,-1651.02 3006.14,-3686.97l0 -9791.03 -128977.6 0z"/>
  <path class="fil6" d="M33722.37 -5485.64c0,661.35 -536.13,1197.47 -1197.76,1197.47 -661.49,0 -1196.91,-536.12 -1196.91,-1197.47 0,-661.22 535.42,-1197.34 1196.91,-1197.34 661.63,0 1197.76,536.12 1197.76,1197.34z"/>
  <path class="fil7" d="M93791.08 59967.97l0 -58282.09c0,-1527.8 -1283.47,-2766.37 -2865.43,-2766.37l-117208.03 0c-1582.8,0 -2865.85,1238.57 -2865.85,2766.37l0 58282.09 122939.31 0z"/>
  <polygon class="fil8" points="-23749.41,55184.59 50142.83,55184.59 50142.83,3624.45 -23749.41,3624.45 "/>
  <polygon class="fil3" points="-23749.41,9661.3 50142.83,9661.3 50142.83,3624.55 -23749.41,3624.55 "/>
  <path class="fil9" d="M55307.57 55564.5l0 -22360.53 3394.16 0c406.36,1233.72 956.42,2429.22 1649.61,3563.01l0 1590.77 -5043.77 0 0 17206.75z"/>
  <path class="fil10" d="M81483.7 55564.5l-5044.35 0 0 -10639.02c1722.66,-146.68 3425.43,-554.47 5044.35,-1222.63l0 11861.65z"/>
  <path class="fil10" d="M74439.52 55564.5l-5044.33 0 0 -11514.71c1635.97,564.71 3337.3,874.27 5044.33,928.57l0 10586.14zm-768.93 -12600.89c-1455.48,-125.37 -2896.71,-461.23 -4275.4,-1007.73l0 0c1378.69,546.5 2821.36,882.36 4275.4,1007.73z"/>
  <path class="fil10" d="M88628.77 55564.5l-5044.35 0 0 -12907.48c1217.74,-718.41 1083.57,-1501.27 1099.28,-1482.21 0,0 2331.85,-4851.57 3945.07,-3066.37l0 17456.06zm0 -10891.31l-2379.33 -1896.63 -1.41 0.85c-36.96,-118.83 -427.83,-1399.44 -447.73,-1628.3 0,-13.2 -4.26,-27.13 -8.52,-41.06 113.7,-93.82 225.98,-189.89 336.86,-286.69l2500.13 2440.72 0 1411.11zm0 -5189.59l-611.17 -597.1c211.78,-255.13 415.02,-514.11 611.17,-778.06l0 1375.16zm-2987.66 -911.65c4.27,-4.41 9.94,-9.52 14.2,-13.93 -4.26,4.41 -9.93,9.52 -14.2,13.93z"/>
  <path class="fil10" d="M67395.79 55564.5l-5043.79 0 0 -16146.13c212.79,232.38 434.24,460.51 662.22,683.5 1325.39,1294.41 2806.85,2331.43 4381.57,3111.19l0 12351.44zm0 -14577.4c-998.22,-577.94 -1945.82,-1279.78 -2820.09,-2104.88 874.27,825.1 1821.87,1526.24 2820.09,2104.88l0 0zm-2959.38 -2237.63c0,-0.7 0.7,0 0,-0.7 0.7,0.7 0,0 0,0.7z"/>
  <polygon class="fil10" points="55307.57,55564.5 60351.26,55564.5 60351.26,38357.75 55307.57,38357.75 "/>
  <polygon class="fil11" points="-21200.08,20901.13 47002.95,20901.13 47002.95,12147.28 -21200.08,12147.28 "/>
  <polygon class="fil11" points="3104.98,25630.79 47002.95,25630.79 47002.95,23387.22 3104.98,23387.22 "/>
  <polygon class="fil3" points="-21200.08,49279.9 395.06,49279.9 395.06,23387.34 -21200.08,23387.34 "/>
  <path class="fil11" d="M47003.09 30360.57c-14686.44,0 -29229.48,0 -43898.11,0l0 -2243.43 43898.11 0 0 2243.43z"/>
  <path class="fil11" d="M47003.09 44549.97l-43898.11 0 0 -2243.45c14609.19,0 29238.82,0 43898.11,0l0 2243.45z"/>
  <polygon class="fil11" points="3104.98,49279.9 47002.95,49279.9 47002.95,47036.35 3104.98,47036.35 "/>
  <path class="fil0" d="M-52028.84 32672.25l41000.28 -74.06c615.73,-0.7 1115.77,497.34 1116.89,1113.34l97.24 54025.79c1.12,616.06 -497.05,1115.54 -1112.78,1116.97l-41000.43 74.14c-615.73,0.72 -1115.74,-497.32 -1116.88,-1113.38l-97.22 -54025.77c-1.14,-616.02 497.04,-1115.47 1112.9,-1117.03z"/>
  <polygon class="fil12" points="-50890.77,34239.57 -12161.08,34169.92 -12065.99,86976.02 -50795.67,87045.7 "/>
  <path class="fil13" d="M-23133.68 31874.31c-0.44,-237.64 -193.3,-429.68 -430.81,-428.97l-16261.85 29.29c-237.5,0 -429.66,192.87 -429.24,430.51l2.99 1690.55 17121.88 -30.83 -2.97 -1690.55z"/>
  <path class="fil13" d="M-31691.59 33614.02c-908.36,1.44 -1646.05,-733.4 -1647.75,-1641.35 -1.56,-908.8 733.42,-1646.63 1641.79,-1648.05 908.39,-1.43 1646.05,733.4 1647.75,1642.06 1.71,908.1 -733.4,1645.93 -1641.79,1647.34zm-7.52 -4209.01c-1416.51,2.14 -2562.68,1152.85 -2560.12,2569.07 2.56,1416.22 1152.86,2562.53 2569.35,2559.56 1416.36,-2.14 2562.55,-1152.15 2559.99,-2569.08 -2.56,-1416.22 -1152.86,-2562.53 -2569.22,-2559.55z"/>
  <path class="fil14" d="M-23397.07 31478.31c154.51,65.26 263.1,217.75 263.39,396l2.97 1690.55 -17121.88 30.83c2.12,1170.48 953,2118.08 2124.05,2115.96l12881.45 -22.74c1171.05,-2.29 2118.52,-953.44 2116.38,-2124.05l-2.97 -1690.55c-0.29,-178.25 -108.88,-330.74 -263.39,-396z"/>
  <path class="fil15" d="M-39826.34 31474.63l0 0c-148.52,0 -279.29,75.47 -356.34,190.02 77.05,-114.55 207.82,-190.02 356.34,-190.02z"/>
  <path class="fil15" d="M-40236.54 31777.52c8.4,-27.16 19.33,-52.75 32.41,-77.76 -13.08,25.01 -24.01,50.6 -32.41,77.76z"/>
  <path class="fil6" d="M-21883.34 49532.2l5055.58 -8.96 -9.11 -5055.43 -5055.56 8.96 9.09 5055.43zm5281.15 215.61l-5505.72 10.23 -9.94 -5505.84 5505.7 -10.23 9.96 5505.84z"/>
  <path class="fil6" d="M-21866.85 58693.16l5055.57 -8.67 -8.96 -5056.29 -5055.7 9.53 9.09 5055.43zm5281.14 215.75l-5505.72 9.52 -9.93 -5504.98 5505.69 -10.38 9.96 5505.84z"/>
  <path class="fil6" d="M-21850.35 67854.4l5055.7 -8.79 -9.1 -5056.14 -5055.56 9.38 8.96 5055.55zm5281.13 215.64l-5505.7 9.52 -9.96 -5505.14 5505.7 -10.25 9.96 5505.87z"/>
  <path class="fil6" d="M-21833.74 77015.53l5055.58 -9.52 -9.1 -5055.58 -5055.56 9.67 9.08 5055.43zm5281 215.61l-5505.69 9.52 -9.96 -5505.84 5505.7 -9.38 9.95 5505.7z"/>
  <polygon class="fil15" points="-47985.41,45203.5 -24422.71,45161 -24424.12,44368.89 -47986.83,44411.39 "/>
  <polygon class="fil15" points="-47981.28,47447.8 -24418.72,47405.16 -24420.01,46613.04 -47982.84,46654.98 "/>
  <polygon class="fil15" points="-47977.31,49692.09 -24414.6,49649.45 -24416.01,48856.64 -47978.72,48899.13 "/>
  <polygon class="fil15" points="-47968.35,54677.73 -24405.64,54635.24 -24407.07,53842.4 -47969.78,53885.04 "/>
  <polygon class="fil15" points="-47964.23,56921.33 -24401.52,56879.54 -24402.94,56086.7 -47965.64,56129.19 "/>
  <polygon class="fil15" points="-47960.24,59165.6 -24397.53,59122.96 -24398.97,58331 -47961.67,58373.49 "/>
  <polygon class="fil15" points="-47952.15,63654.06 -24389.44,63611.56 -24390.86,62818.74 -47953.56,62861.24 "/>
  <polygon class="fil15" points="-47948.01,65897.65 -24385.45,65855.86 -24386.74,65063.04 -47949.59,65105.54 "/>
  <polygon class="fil15" points="-47944.04,68141.8 -24381.48,68099.31 -24382.75,67307.2 -47945.46,67349.84 "/>
  <polygon class="fil15" points="-47935.93,72630.4 -24373.23,72587.76 -24374.66,71795.09 -47937.51,71837.58 "/>
  <polygon class="fil15" points="-47931.96,74874.7 -24369.26,74832.06 -24370.67,74039.24 -47933.38,74081.73 "/>
  <polygon class="fil15" points="-47927.99,77118.15 -24365.14,77075.65 -24366.7,76283.54 -47929.41,76326.03 "/>
  <polygon class="fil15" points="-47917.47,82920.2 -20734.46,82871.16 -20735.74,82079.05 -47918.89,82128.09 "/>
  <polygon class="fil15" points="-47914.06,84840.34 -15370.32,84781.65 -15371.75,83989.54 -47915.48,84048.21 "/>
  <polygon class="fil2" points="-19382.35,48847.82 -21092.08,45914.18 -20480.32,45557.69 -19487.8,47260.75 -17867.75,43373.66 -17214.08,43646.43 "/>
  <polygon class="fil2" points="-19365.57,58128.46 -21075.3,55195.52 -20463.56,54839.04 -19471.04,56541.39 -17851,52655.01 -17197.32,52927.07 "/>
  <polygon class="fil2" points="-19332.87,76274.72 -21042.75,73341.08 -20430.86,72984.6 -19438.48,74686.8 -17818.29,70800.42 -17164.62,71072.62 "/>
  <polygon class="fil2" points="-17428.01,63933.51 -17921.06,63435.47 -19327.9,64829.8 -20739.71,63440.73 -21230.94,63940.19 -19825.5,65322.58 -21226.11,66710.95 -20733.04,67208.28 -19326.2,65813.93 -17914.38,67203.16 -17423.16,66703.69 -18828.59,65321.15 "/>
  <polygon class="fil6" points="-39751.58,41815.01 -39751.58,39177.02 -40802.94,39177.02 -40802.94,38945.9 -38368.89,38945.9 -38368.89,39177.02 -39420.27,39177.02 -39420.27,41815.01 "/>
  <polygon class="fil6" points="-35682.71,41584.06 -35682.71,41815.01 -37792.83,41815.01 -37792.83,38945.9 -35757.17,38945.9 -35757.17,39177.02 -37463.79,39177.02 -37463.79,40181.77 -36228.35,40181.77 -36228.35,40412.72 -37463.79,40412.72 -37463.79,41584.06 "/>
  <path class="fil6" d="M-35346.56 41128.66l285.55 -95.39c96.09,204.55 218.88,355.78 368.56,453.28 149.67,97.51 333.31,145.97 550.91,145.97 223.99,0 404.36,-50.6 541.24,-153.37 136.88,-101.91 205.39,-236.09 205.39,-403.36 0,-132.76 -44.91,-242.76 -134.47,-328.48 -89.67,-85.84 -241.62,-164.3 -456.11,-235.51 -116.82,-37.4 -271.74,-82.86 -464.63,-135.61 -192.72,-53.57 -316.38,-93.24 -370.83,-118.81 -171.26,-80.02 -292.93,-165.03 -364.71,-255.99 -72.06,-90.24 -108.17,-202.41 -108.17,-335.15 0,-238.35 90.41,-425.4 271.35,-561.86 180.78,-136.45 429.66,-204.68 746.47,-204.68 281.73,0 514.11,55.86 697.46,168 183.22,111.44 322.78,283.14 418.87,514.82l-278.58 71.91c-87.98,-178.93 -201.12,-310.97 -339.56,-395.98 -138.59,-85.13 -309.29,-127.63 -512.53,-127.63 -196.86,0 -356.48,45.49 -479,137.15 -122.39,92.39 -183.63,211.93 -183.63,359.33 0,110.85 39.64,204.66 118.81,280.85 79.31,76.32 202.12,138.73 368.56,186.34 63.95,19.04 156.78,46.2 278.44,79.17 348.79,96.21 573.8,171.7 674.56,227.42 161.62,84.99 278.73,178.94 351.64,280.14 72.79,101.91 109.32,221.58 109.32,360.16 0,250.73 -98.09,450.29 -294.08,599.25 -196.15,148.81 -461.36,222.86 -795.81,222.86 -300.91,0 -548.49,-59.41 -742.94,-178.23 -194.45,-118.83 -348.65,-304.32 -462.08,-556.6z"/>
  <polygon class="fil6" points="-31690.73,41815.01 -31690.73,39177.02 -32742.09,39177.02 -32742.09,38945.9 -30308.05,38945.9 -30308.05,39177.02 -31359.41,39177.02 -31359.41,41815.01 "/>
  <polygon class="fil6" points="-29678.97,41815.01 -29350.12,41815.01 -29350.12,38945.92 -29678.97,38945.92 "/>
  <polygon class="fil6" points="-28027.37,39153.57 -28027.37,41815.01 -28346.74,41815.01 -28346.74,38945.9 -27811.46,38945.9 -26109.4,41367.01 -26109.4,38945.9 -25790.18,38945.9 -25790.18,41815.01 -26140.67,41815.01 "/>
  <path class="fil6" d="M-22777.63 41493.08c-118.4,126.92 -258.4,221.6 -420.02,283.84 -161.74,63.12 -349.79,94.66 -564.13,94.66 -440.18,0 -775.33,-127.63 -1005.87,-381.33 -230.42,-254.57 -345.67,-622.69 -345.67,-1104.54 0,-477.56 117.69,-845.68 352.9,-1104.52 235.24,-259.68 568.12,-389.43 998.64,-389.43 318.4,0 572.95,68.92 763.4,205.94 190.33,137.3 331.33,352.79 422.43,647.71l-309.56 52.02c-76.9,-230.98 -186.92,-401.81 -330.19,-511.83 -143.13,-110.02 -326.91,-165.01 -550.9,-165.01 -320.1,0 -567.4,107.03 -741.8,321.23 -174.41,214.05 -261.54,517.79 -261.54,910.78 0,423.98 88.42,744.5 265.09,960.11 176.96,215.63 439.77,324.22 788.7,324.22 262.37,0 473.74,-61.69 633.78,-183.35 159.89,-122.53 240.06,-283.84 240.06,-484.11l0 -306.59 -883.5 0 0 -215.61 1238.84 0 0 1367.74 -290.66 0 0 -321.93z"/>
  <path class="fil9" d="M64648.34 14258.63l-8586.18 0 0 -10639.3 10639 0 0 9326.99c-708.39,383.46 -1394.18,820.67 -2052.82,1312.31z"/>
  <polygon class="fil9" points="68583.6,5064.97 89338.58,5064.97 89338.58,3619.31 68583.6,3619.31 "/>
  <polygon class="fil9" points="68583.6,8129.53 82590.42,8129.53 82590.42,6683.87 68583.6,6683.87 "/>
  <path class="fil9" d="M87227.33 11194.07l-9338.21 0c-1029.05,-189.6 -2069.47,-284.4 -3111.31,-284.4 -1040.43,0 -2080.85,94.8 -3107.06,284.4l-3087.15 0 0 -1445.64 18643.73 0 0 1445.64z"/>
  <path class="fil16" d="M85814.52 38624.67c321.23,-327.75 619.7,-666.6 898.29,-1011.98l5956.83 5817.4c366.71,357.19 240.21,1080.36 -281.43,1614.22 -521.64,534.71 -1240.82,677.68 -1607.53,319.81l-5956.83 -5817.42c338.27,-286.11 670.86,-593.4 990.67,-922.03z"/>
  <path class="fil17" d="M74975.37 43020.17c-179.1,0 -358.18,-2.97 -535.85,-9.66l0 -1714 1655.86 1682.44c-373.8,27.15 -746.21,41.22 -1120.01,41.22zm-5580.18 -1064.29c-683.68,-271.35 -1353.13,-593.98 -1999.4,-968.78l0 -6850.17 1999.4 2033.09 0 5785.86zm-7043.19 -5702.99c-1692.66,-2535.4 -2542.77,-5468.46 -2542.77,-8398.43 0,-456.1 20.62,-912.36 61.7,-1366.32l2481.07 2521.45 0 7243.3z"/>
  <polygon class="fil18" points="62352,36252.89 62352,29009.59 64412.96,31105.78 62352,31105.78 "/>
  <path class="fil19" d="M74439.52 43010.51c-257.26,-8.67 -513.1,-24.87 -768.93,-46.9 -1454.04,-125.37 -2896.71,-461.23 -4275.4,-1007.73l0 -5785.86 5044.33 5126.49 0 1714z"/>
  <path class="fil19" d="M67395.79 40987.1c-998.22,-578.64 -1945.82,-1279.78 -2820.09,-2104.88 -46.2,-44.06 -93.1,-88.11 -139.29,-132.75 0,-0.7 0.7,0 0,-0.7 -16.9,-16.22 -34.53,-33.83 -52.02,-50.04l0 0c-776.06,-758.29 -1453.75,-1578.26 -2032.39,-2445.84l0 -5147.11 2060.96 0 2982.83 3031.15 0 6850.17z"/>
  <path class="fil17" d="M81483.7 41543.68l0 -32.26c734.81,-368.83 1438.38,-797.23 2100.72,-1279.78l0 80.75c-672.28,471.59 -1375.84,882.21 -2100.72,1231.29zm2100.72 -5358.31l-2100.72 -2135.7 0 -5052.58 2100.72 2135.84 0 5052.44zm5044.35 -1956.05l0 -343.24c565.69,-1339.2 949.45,-2783.98 1112.9,-4305.82 49.75,-470.18 78.19,-936.66 85.28,-1400.17l-1198.18 -1217.36 0 -1980.35 -1947.23 0 -5197.84 -5282.71 0 -3175.41 -3124.12 0 -3588.88 -3647.46c5.67,0 11.37,0 18.48,0 0,0 1.41,0 1.41,0 0,0 1.42,0 1.42,0 3790.72,0.43 7592.8,1421.35 10537.82,4271.13l1.43 1c7.11,8.11 14.2,15.49 24.16,23.6 8.53,8.37 17.05,17.48 25.59,25.86 3045.94,2974.16 4575.29,6911.98 4576.71,10844.55 0,2113.83 -443.45,4226.07 -1328.95,6186.38zm-12189.42 -5306.28l-11837.91 -12033.21c-1940,1804.53 -3416.35,4125.44 -4200.35,6776.95 663.05,-2292.64 1883.55,-4457.77 3664.93,-6282.05 1661.95,-1701.36 3631.93,-2922.28 5737.08,-3660.67 -801.63,285.84 -1574.84,638.75 -2309.8,1052.51l8946.05 9093.59 0 5052.88z"/>
  <path class="fil18" d="M76439.35 28923.04l0 -5052.88 1626.01 1652.02 -1626.01 0 0 3400.86zm5044.35 -9223.37l-3124.12 -3175.41 3124.12 0 0 3175.41z"/>
  <path class="fil18" d="M83584.42 36185.37l0 -5052.44 884.09 897.72 -884.09 0 0 4154.72zm5044.35 -9222.64l-1947.23 -1980.35 1947.23 0 0 1980.35z"/>
  <path class="fil19" d="M79913.11 42190.68c537.25,-196.56 1061.74,-423.98 1570.59,-679.26l0 32.26c-513.11,246.47 -1037.6,462.08 -1570.59,647zm1570.59 -8141.01l-5044.35 -5126.63 0 -3400.86 1626.01 0 3418.34 3474.91 0 5052.58z"/>
  <path class="fil19" d="M83584.42 40312.39l0 -80.75c767.54,-557.44 1481.05,-1186.68 2133.45,-1878.29l-2133.45 -2167.98 0 -4154.72 884.09 0 3379.94 3435.95c288.54,-508.27 550.06,-1035.58 780.32,-1580.52l0 343.24c-699.3,1546.84 -1675.76,2999.03 -2929.38,4283.21l0 0c-14.22,14.64 -28.44,30.15 -44.08,45.49 -4.26,4.41 -9.93,9.52 -14.2,13.93 -643.88,651.97 -1331.79,1231.3 -2056.69,1740.44z"/>
  <path class="fil20" d="M76095.38 42978.95l-1655.86 -1682.44 0 -12864.13 -5044.33 0 0 7737.64 -1999.4 -2033.09 0 -10356.87 -5043.79 0 0 5229.53 -2481.07 -2521.45c85.69,-952.03 262.51,-1896.63 530.16,-2821.36 784,-2651.51 2260.35,-4972.42 4200.35,-6776.95l11837.91 12033.21 0 14025.93c-115.14,11.79 -230.25,21.31 -343.97,29.98zm5388.32 -1467.53l0 -7461.75 2100.72 2135.7 0 4046.27c-662.34,482.55 -1365.91,910.95 -2100.72,1279.78z"/>
  <polygon class="fil21" points="69395.19,36170.02 69395.19,28432.38 74439.52,28432.38 74439.52,34685.57 69395.19,34685.57 "/>
  <polygon class="fil21" points="67395.79,31105.78 64412.96,31105.78 62352,29009.59 62352,23780.06 67395.79,23780.06 "/>
  <path class="fil22" d="M76439.35 42948.97l0 -14025.93 5044.35 5126.63 0 7461.75c-508.85,255.28 -1033.34,482.7 -1570.59,679.26 -1128.55,390.87 -2295.46,643.86 -3473.76,758.29z"/>
  <polygon class="fil22" points="74439.52,41296.51 69395.19,36170.02 69395.19,34685.57 74439.52,34685.57 "/>
  <path class="fil22" d="M83584.42 40231.64l0 -4046.27 2133.45 2167.98c-652.4,691.61 -1365.91,1320.85 -2133.45,1878.29z"/>
  <polygon class="fil22" points="67395.79,34136.93 64412.96,31105.78 67395.79,31105.78 "/>
  <path class="fil20" d="M88628.77 33886.08l0 -6923.35 1198.18 1217.36c-7.09,463.51 -35.53,929.99 -85.28,1400.17 -163.45,1521.84 -547.21,2966.62 -1112.9,4305.82zm-5044.35 -2753.15l-2100.72 -2135.84 0 -9297.42 5197.84 5282.71 -3097.12 0 0 6150.55zm-7145.07 -7262.77l-8946.05 -9093.59c734.96,-413.76 1508.17,-766.67 2309.8,-1052.51 1601.86,-562.57 3283.31,-844.83 4967.6,-847.26l3588.88 3647.46 -1920.23 0 0 7345.9z"/>
  <polygon class="fil21" points="81483.7,25522.18 78065.36,25522.18 76439.35,23870.16 76439.35,16524.26 78359.58,16524.26 81483.7,19699.67 "/>
  <polygon class="fil21" points="88628.77,32030.65 84468.51,32030.65 83584.42,31132.93 83584.42,24982.38 86681.54,24982.38 88628.77,26962.73 "/>
  <polygon class="fil22" points="81483.7,28997.09 78065.36,25522.18 81483.7,25522.18 "/>
  <path class="fil22" d="M87848.45 35466.6l-3379.94 -3435.95 4160.26 0 0 1855.43c-230.26,544.94 -491.78,1072.25 -780.32,1580.52z"/>
  <path class="fil6" d="M64384.39 38698.73c-5973.76,-5834.32 -6116.04,-15376.92 -318.37,-21314 5798.21,-5936.94 15341.09,-6020.37 21314.99,-186.34 5973.89,5834.17 6117.44,15376.35 318.38,21314.14 -5797.65,5937.09 -15340.53,6019.81 -21315,186.2zm-1370.17 1403.14c6753.35,6595.6 17542.75,6500.95 24097.98,-211.2 6555.23,-6711.57 6393.19,-17499.55 -359.6,-24095.28 -6754.21,-6595.75 -17543.61,-6501.36 -24098.42,210.64 -6554.5,6711.86 -6393.19,17500.26 360.04,24095.84z"/>
  <path class="fil23" d="M74981.05 43953.01c-4049.39,0 -8111.16,-1526.95 -11246.51,-4588.95 -6344.14,-6195.19 -6495.22,-16328.79 -338.12,-22633.3 3114.14,-3188.48 7245.28,-4787.07 11388.5,-4787.07 4049.39,0 8111.59,1527.09 11245.63,4589.24 6344.88,6195.48 6495.54,16328.65 338.29,22633.13 -3112.75,3188.78 -7244.57,4786.95 -11387.79,4786.95zm-15171.82 -16098.55c0,3931.87 1529.94,7869.54 4575.16,10844.27 2953.4,2883.89 6777.51,4321.44 10590.98,4321.44 3901.58,0 7791.79,-1505.76 10724.02,-4507.64 2842.67,-2910.9 4258.33,-6687.97 4258.33,-10469.59l0 0c-1.42,-3932.57 -1530.77,-7870.39 -4576.71,-10844.55 -8.54,-8.38 -17.06,-17.49 -25.59,-25.86 -9.96,-8.11 -17.05,-15.49 -24.16,-23.6l-1.43 -1c-2946.43,-2850.22 -6747.1,-4270.99 -10537.82,-4271.13 0,0 -1.42,0 -1.42,0l0 0c-5.67,0 -12.78,0 -19.89,0 -1684.29,2.43 -3365.74,284.69 -4967.6,847.26 -2105.15,738.39 -4075.13,1959.31 -5737.08,3660.67 -1781.38,1824.28 -3001.88,3989.41 -3664.93,6282.05 -267.65,924.73 -444.47,1869.33 -530.16,2821.36 -41.08,453.96 -61.7,910.22 -61.7,1366.32l0 0z"/>
  <path class="fil6" d="M111172.65 64155.65l925.3 -959.97c925.29,-960.11 898.28,-2487.76 -62.54,-3412.64l-17198.22 -16675.59c-960.83,-924.87 -2488.77,-897.02 -3412.65,62.24l-926.7 960.85c-925.29,959.26 -896.87,2487.06 62.53,3412.49l17199.64 16675.03c959.41,925.56 2487.35,897.71 3412.64,-62.41z"/>
 </g>
</svg>
