<?xml version="1.0" standalone="no"?>
<!DOCTYPE svg PUBLIC "-//W3C//DTD SVG 20010904//EN"
 "http://www.w3.org/TR/2001/REC-SVG-20010904/DTD/svg10.dtd">
<svg version="1.0" xmlns="http://www.w3.org/2000/svg"
 width="1000.000000pt" height="1095.000000pt" viewBox="0 0 1000.000000 1095.000000"
 preserveAspectRatio="xMidYMid meet">
<metadata>
Created by potrace 1.16, written by Peter Selinger 2001-2019
</metadata>
<g transform="translate(0.000000,1095.000000) scale(0.100000,-0.100000)"
fill="#000000" stroke="none">
<path d="M1755 10879 c-352 -48 -691 -190 -972 -408 -121 -93 -234 -201 -226
-213 3 -6 1 -8 -4 -5 -11 7 -49 -42 -45 -56 1 -5 -2 -6 -7 -3 -12 8 -53 -43
-44 -57 3 -5 1 -7 -5 -3 -13 8 -104 -115 -180 -243 -111 -190 -189 -393 -239
-628 -26 -120 -27 -144 -28 -388 0 -233 2 -272 23 -374 63 -312 184 -591 359
-827 75 -100 154 -190 166 -186 5 1 6 -2 3 -7 -8 -12 140 -147 260 -237 261
-196 595 -333 923 -378 61 -9 126 -16 144 -16 l32 0 0 -2186 c0 -1202 -2
-2175 -5 -2162 -7 30 -56 35 -141 13 -117 -30 -309 -136 -309 -171 0 -8 -6
-13 -12 -12 -7 2 -13 -5 -13 -14 0 -10 -7 -23 -15 -30 -12 -11 -12 -10 0 7 14
18 13 19 -1 7 -23 -17 -58 -102 -65 -155 -4 -26 0 -68 10 -106 19 -74 86 -207
103 -204 7 2 10 -3 7 -11 -3 -7 3 -19 13 -27 17 -13 17 -13 3 6 -15 20 -14 20
8 1 23 -20 30 -32 11 -20 -7 4 -10 1 -7 -7 3 -8 11 -13 17 -11 6 1 10 -4 9
-10 -2 -7 3 -12 10 -10 8 1 11 -2 8 -7 -13 -21 170 -141 292 -190 l77 -31 0
-429 c0 -419 1 -430 21 -458 11 -15 36 -36 55 -45 32 -17 160 -18 2322 -15
l2289 2 -1 175 c-1 96 5 414 14 705 8 292 19 708 25 925 5 217 14 553 20 745
5 193 17 609 25 925 8 316 17 628 20 693 l5 118 -25 9 c-34 13 -55 60 -55 125
0 83 30 140 75 144 9 1 29 470 20 479 -1 2 -52 16 -111 32 -60 15 -144 44
-187 64 -77 35 -227 127 -258 159 -15 15 -17 10 -28 -56 -52 -317 -281 -562
-599 -638 -72 -18 -106 -20 -197 -16 -131 7 -203 25 -310 78 -200 99 -348 279
-411 499 -25 89 -26 289 -1 380 74 273 284 487 551 560 65 18 80 20 87 8 15
-23 5 -30 -71 -49 -256 -65 -447 -257 -519 -519 -26 -92 -28 -263 -5 -360 33
-143 131 -298 248 -392 136 -109 282 -160 461 -160 208 -1 369 66 515 212 123
122 188 255 209 426 l10 79 -63 65 c-123 127 -221 305 -270 489 -109 408 -9
846 269 1181 72 85 131 140 170 154 11 4 56 9 100 11 61 3 89 0 120 -14 50
-22 91 -70 104 -119 5 -20 12 -269 16 -552 6 -481 8 -518 26 -560 28 -63 43
-77 227 -215 177 -133 216 -152 266 -131 37 16 349 264 378 301 45 57 46 78
36 625 -5 283 -6 530 -3 548 7 37 55 96 94 117 14 7 67 15 116 18 l90 5 3 495
2 496 78 42 c147 81 301 192 302 216 0 7 3 12 8 12 19 -3 25 2 12 11 -14 9 -9
12 16 10 11 -1 84 96 114 152 73 137 99 295 65 397 -13 39 -20 50 -27 40 -7
-10 -8 -8 -3 7 5 20 -7 38 -30 46 -5 1 -10 8 -10 14 0 19 -60 63 -127 94 -81
38 -182 60 -273 59 -81 0 -103 -7 -119 -36 -8 -17 -10 69 -8 357 l3 380 -35
37 -34 38 -2449 5 -2448 5 -77 32 c-92 39 -220 76 -354 104 -79 16 -146 21
-334 24 -129 2 -266 -1 -305 -6z m518 -214 c922 -123 1611 -941 1574 -1870
-22 -543 -274 -1036 -697 -1367 -837 -652 -2038 -460 -2632 421 -217 324 -320
689 -305 1086 28 723 479 1353 1162 1625 103 41 288 89 403 105 131 18 363 18
495 0z m3612 -350 l0 -50 -977 -3 -978 -2 0 55 0 55 978 -2 977 -3 0 -50z
m-415 -4092 c70 -22 150 -96 181 -165 63 -143 1 -309 -146 -386 -73 -39 -177
-38 -257 1 -96 47 -157 136 -165 242 -12 140 67 260 200 306 66 23 121 24 187
2z m-2285 -1417 l50 -55 103 -2 104 -2 56 56 57 55 85 -38 c74 -33 85 -41 84
-61 -1 -13 -3 -47 -5 -75 l-2 -51 76 -77 77 -77 72 2 73 2 32 -74 c17 -41 32
-83 32 -94 0 -12 -21 -37 -52 -62 l-51 -43 -1 -111 -2 -110 54 -49 55 -48 -39
-89 -39 -88 -74 3 -75 4 -79 -77 -78 -76 6 -69 c8 -79 14 -72 -97 -116 l-77
-32 -49 56 -49 56 -109 2 -108 2 -50 -55 -51 -56 -88 38 -88 38 3 76 3 76 -77
78 -76 78 -72 -3 -73 -3 -35 89 -35 88 57 52 57 51 1 105 2 105 -57 50 -56 50
37 88 38 89 78 -3 78 -3 37 39 c21 22 55 55 76 73 l38 33 -3 76 -4 77 80 33
c44 17 85 32 90 33 6 0 33 -24 60 -54z"/>
<path d="M2486 10194 c-184 -45 -334 -200 -368 -382 -14 -78 0 -179 37 -261
14 -29 25 -55 25 -56 0 -2 -84 -75 -187 -162 -103 -87 -223 -190 -267 -228
-45 -39 -268 -230 -496 -424 -466 -398 -514 -441 -540 -491 -46 -89 -37 -126
52 -222 53 -57 55 -58 108 -58 34 0 69 8 97 21 31 15 231 211 715 702 369 375
675 683 679 685 5 2 22 -6 39 -18 46 -33 137 -62 211 -68 218 -16 424 143 484
375 24 92 20 136 -16 178 -54 61 -69 55 -240 -105 -82 -78 -161 -145 -174
-150 -29 -11 -194 15 -213 34 -8 7 -15 52 -19 115 l-6 102 114 107 c202 189
209 197 209 227 0 17 -12 39 -34 61 -31 31 -39 34 -92 33 -33 0 -85 -7 -118
-15z m-1446 -1929 c18 -22 5 -74 -31 -123 -39 -54 -129 -100 -167 -86 -72 25
-4 163 103 210 40 18 80 17 95 -1z"/>
<path d="M2201 8908 c-245 -221 -322 -295 -328 -316 -9 -37 33 -75 73 -67 l32
6 270 -373 c264 -365 294 -402 359 -446 54 -38 309 -142 346 -142 29 0 49 13
131 86 58 51 99 96 103 112 7 31 -32 245 -59 319 -10 28 -37 76 -59 105 -22
29 -194 190 -384 358 -301 267 -344 308 -341 330 4 26 -9 60 -28 72 -27 18
-59 5 -115 -44z"/>
<path d="M5255 6162 c-179 -98 -174 -363 10 -448 63 -30 161 -32 220 -5 54 24
119 100 135 156 34 123 -24 256 -135 306 -64 29 -168 25 -230 -9z"/>
<path d="M8905 6501 c-16 -10 -38 -27 -48 -39 -19 -20 -18 -22 10 -59 l28 -38
-33 27 c-70 58 -167 56 -224 -4 -83 -89 17 -187 252 -247 156 -40 156 -40 115
-124 -34 -67 -29 -81 24 -60 50 20 71 12 71 -26 0 -34 -34 -66 -79 -76 -22 -5
-31 -15 -40 -44 -6 -21 -11 -43 -11 -50 0 -36 128 14 211 82 35 29 78 59 96
66 22 9 39 27 53 55 24 51 27 126 5 126 -20 0 -19 9 3 33 25 28 21 103 -9 158
-29 53 -92 89 -155 89 -39 0 -43 2 -49 30 -8 37 -48 86 -86 105 -38 20 -98 19
-134 -4z"/>
<path d="M7740 5779 c-66 -41 -202 -99 -305 -129 l-89 -26 2 -54 c4 -89 21
-380 37 -610 8 -118 17 -269 20 -335 3 -66 15 -271 26 -455 59 -1007 71 -1211
80 -1380 5 -102 27 -489 49 -860 62 -1034 71 -1209 69 -1285 l-2 -70 41 2 c52
2 78 16 102 56 20 31 20 69 20 1974 0 1543 -3 1942 -12 1947 -7 3 -2 3 12 0
33 -6 158 70 260 160 41 35 78 62 81 58 8 -8 95 -242 132 -352 76 -225 74
-214 107 -695 17 -247 29 -468 27 -490 -2 -22 -24 -146 -50 -275 -142 -729
-236 -1648 -237 -2325 l0 -141 -67 -29 c-96 -42 -202 -115 -268 -187 -52 -55
-55 -62 -38 -72 29 -16 588 -14 636 2 43 16 44 23 22 146 -12 67 -12 82 0 100
8 11 43 194 79 406 146 859 259 1407 347 1675 l33 100 7 -105 c15 -213 29
-941 29 -1482 l0 -557 -73 -73 c-70 -70 -150 -198 -134 -214 19 -19 438 -33
463 -16 17 11 24 81 14 157 -5 38 -5 74 0 80 5 6 20 123 34 260 108 1060 169
2255 137 2700 -13 172 -17 490 -7 540 43 226 64 320 98 445 22 80 43 151 47
158 10 18 65 -148 82 -242 14 -81 7 -239 -13 -306 l-14 -45 43 -37 c51 -44
115 -88 162 -113 27 -13 35 -14 42 -4 4 7 6 16 3 20 -2 4 1 11 7 15 8 5 10 2
5 -7 -22 -41 41 47 80 111 93 157 134 308 134 499 0 187 -36 331 -127 516 -56
111 -151 257 -164 250 -5 -3 -6 0 -4 7 8 19 -121 152 -170 176 -41 20 -167 52
-204 52 -13 0 -21 -7 -22 -17 -1 -11 -4 -9 -8 7 -6 23 -14 26 -85 34 -72 9
-80 8 -94 -10 -12 -16 -14 -16 -9 -1 4 9 5 17 4 17 -1 0 -34 -7 -72 -15 -39
-8 -99 -15 -135 -15 -107 0 -240 43 -240 78 0 10 -11 13 -39 10 -22 -2 -38 -1
-36 3 6 9 -35 27 -80 34 -108 19 -244 -4 -352 -59 -87 -44 -123 -71 -258 -191
l-110 -98 -5 305 -5 305 -45 -28z"/>
<path d="M7025 1168 c-108 -113 -144 -330 -85 -520 11 -36 27 -69 36 -72 23
-9 267 -7 281 2 44 28 68 261 39 385 -34 146 -119 257 -197 257 -14 0 -42 -20
-74 -52z"/>
</g>
</svg>
